<?xml version="1.0" encoding="UTF-8" standalone="no"?>
<!DOCTYPE svg PUBLIC "-//W3C//DTD SVG 1.1//EN" "http://www.w3.org/Graphics/SVG/1.1/DTD/svg11.dtd">
<svg width="100%" height="100%" viewBox="0 0 1024 1024" version="1.1" xmlns="http://www.w3.org/2000/svg" xmlns:xlink="http://www.w3.org/1999/xlink" xml:space="preserve" xmlns:serif="http://www.serif.com/" style="fill-rule:evenodd;clip-rule:evenodd;stroke-linejoin:round;stroke-miterlimit:2;">
    <g transform="matrix(1,0,0,1,-6596.81,0)">
        <g id="favicon-SOLO-ROSONE-Chiese-Romaniche" serif:id="favicon SOLO ROSONE Chiese Romaniche" transform="matrix(1.62932,0,0,1.96827,6366.3,-2693.35)">
            <rect x="141.479" y="1368.38" width="628.483" height="520.254" style="fill:none;"/>
            <clipPath id="_clip1">
                <rect x="141.479" y="1368.38" width="628.483" height="520.254"/>
            </clipPath>
            <g clip-path="url(#_clip1)">
                <g transform="matrix(1.21881,0,0,1.02578,-30.3728,-39.825)">
                    <rect x="141" y="1372.82" width="515.655" height="507.18" style="fill:rgb(140,0,0);"/>
                </g>
                <g transform="matrix(0.0904919,1.76069e-33,2.12697e-33,-0.0749086,167.08,1902.41)">
                    <path d="M3357,6635C3279,6615 3185,6560 3230,6560C3236,6560 3240,6555 3240,6549C3240,6541 3235,6542 3225,6550C3213,6560 3206,6560 3198,6552C3180,6534 3155,6537 3136,6559C3127,6569 3092,6590 3059,6605C2953,6652 2809,6650 2706,6598C2674,6582 2644,6578 2541,6576L2415,6575L2354,6537C2273,6487 2225,6436 2204,6378C2196,6355 2193,6356 2142,6380C2085,6408 1961,6408 1905,6380C1834,6344 1796,6317 1744,6263C1711,6228 1687,6212 1677,6215C1659,6223 1549,6187 1504,6159C1434,6116 1377,6026 1351,5920L1335,5855L1295,5853C1233,5849 1150,5830 1150,5819C1150,5813 1145,5812 1140,5815C1122,5826 991,5711 990,5684C990,5678 984,5667 977,5661C969,5655 955,5625 944,5594C927,5543 921,5536 874,5513C805,5479 757,5431 723,5362C698,5310 696,5295 696,5194L696,5083L650,5062C521,5003 440,4872 440,4723C440,4683 434,4669 400,4629C378,4602 346,4549 330,4511C305,4453 300,4428 300,4361C300,4291 304,4271 331,4214L363,4147L318,4106C257,4050 234,4014 214,3941C199,3887 198,3869 208,3808C215,3770 230,3716 241,3689C258,3650 260,3637 250,3625C234,3606 200,3474 200,3429C200,3409 209,3362 221,3325C237,3272 252,3247 296,3202C344,3151 352,3147 370,3158C382,3165 390,3166 390,3160C390,3155 385,3150 379,3150C373,3150 370,3143 374,3135C377,3127 375,3120 371,3120C366,3120 348,3087 331,3046C275,2911 292,2799 386,2691C422,2649 424,2644 425,2571C428,2405 499,2291 643,2225L718,2190L708,2144C700,2107 703,2051 715,2000C740,1894 844,1764 933,1731C948,1725 961,1708 970,1678C1023,1507 1142,1414 1308,1418C1365,1419 1370,1417 1370,1397C1370,1362 1397,1284 1424,1237C1478,1146 1555,1096 1668,1078C1722,1069 1740,1062 1762,1037C1786,1011 1792,1009 1807,1021C1822,1032 1823,1032 1813,1020C1794,999 1796,996 1853,958C1929,907 1962,897 2053,897C2140,897 2148,899 2194,921C2221,934 2224,933 2239,910C2336,759 2500,692 2658,738C2696,749 2704,749 2728,732C2773,702 2811,688 2894,675C2962,664 2981,665 3039,679C3076,688 3127,710 3153,728C3208,765 3213,766 3231,744C3238,736 3266,717 3294,703C3408,645 3595,661 3681,736C3694,748 3707,748 3768,736C3830,724 3852,724 3922,737C3969,745 4023,761 4047,775C4091,802 4148,866 4168,914C4178,937 4185,941 4203,936C4269,916 4375,901 4408,906C4518,922 4622,978 4666,1044C4681,1068 4739,1113 4725,1091C4720,1083 4727,1081 4747,1086C4783,1095 4856,1126 4873,1140C4879,1145 4900,1162 4918,1177C4977,1223 5022,1315 5035,1410L5040,1455L5090,1452C5152,1447 5239,1473 5305,1515C5362,1551 5435,1649 5445,1703C5454,1746 5468,1762 5517,1784C5566,1806 5641,1878 5670,1932C5705,1999 5713,2122 5685,2193C5676,2216 5694,2237 5731,2245C5747,2249 5760,2256 5760,2261C5760,2266 5768,2270 5777,2270C5786,2270 5820,2297 5852,2330C5900,2381 5913,2402 5931,2462C5950,2524 5952,2543 5944,2601L5935,2668L5971,2698C6056,2769 6107,2888 6095,2985C6090,3019 6084,3037 6077,3033C6071,3030 6070,3032 6074,3039C6083,3053 6060,3106 6030,3138C6006,3164 6003,3158 6079,3253C6123,3309 6140,3358 6148,3446C6153,3511 6137,3600 6114,3637C6102,3656 6103,3665 6126,3711C6141,3740 6159,3786 6166,3814C6182,3874 6184,3966 6170,3975C6165,3978 6160,3989 6160,3999C6160,4053 6056,4166 6016,4155C6001,4150 5999,4151 6009,4158C6018,4165 6019,4169 6011,4175C6003,4179 6002,4186 6009,4193C6029,4219 6060,4327 6060,4376C6060,4404 6051,4453 6040,4486C6007,4583 6010,4577 5999,4560C5990,4548 5989,4549 5994,4564C5998,4576 5988,4600 5963,4633C5931,4679 5927,4691 5927,4744C5928,4825 5898,4936 5879,4924C5874,4921 5873,4926 5876,4934C5879,4943 5863,4967 5833,4997C5767,5062 5742,5079 5694,5092L5653,5103L5662,5144C5671,5183 5669,5223 5656,5299C5644,5372 5543,5482 5442,5530C5407,5547 5402,5554 5396,5594C5386,5655 5359,5708 5311,5754C5275,5789 5269,5792 5253,5779C5237,5766 5236,5767 5248,5782C5260,5797 5258,5802 5229,5819C5210,5831 5171,5845 5140,5851C5110,5857 5072,5866 5056,5871C5040,5876 5015,5880 5001,5881C4987,5881 4981,5884 4988,5887C5026,5902 4972,6028 4900,6093C4835,6151 4782,6176 4692,6191C4623,6202 4619,6205 4603,6239C4579,6289 4523,6342 4460,6373C4412,6397 4398,6399 4311,6397C4245,6395 4205,6389 4183,6377L4151,6360L4110,6415C4088,6445 4052,6482 4031,6496C3953,6547 3842,6563 3731,6539L3681,6529L3623,6574C3591,6599 3562,6620 3558,6620C3554,6620 3544,6612 3534,6603C3518,6587 3518,6587 3524,6607C3530,6625 3525,6629 3493,6635C3472,6638 3446,6643 3435,6645C3424,6647 3389,6642 3357,6635ZM3420,6620C3433,6612 3433,6610 3418,6610C3409,6610 3398,6615 3395,6620C3387,6633 3400,6633 3420,6620ZM2850,6611C2850,6603 2779,6589 2771,6596C2768,6599 2824,6617 2843,6619C2847,6620 2850,6616 2850,6611ZM2975,6610C2988,6604 2990,6601 2980,6601C2972,6601 2958,6605 2950,6610C2932,6622 2948,6622 2975,6610ZM3367,6604C3364,6601 3355,6600 3348,6603C3340,6606 3343,6609 3354,6609C3365,6610 3371,6607 3367,6604ZM3507,6604C3504,6601 3495,6600 3488,6603C3480,6606 3483,6609 3494,6609C3505,6610 3511,6607 3507,6604ZM2745,6590C2718,6578 2702,6578 2720,6590C2728,6595 2742,6599 2750,6599C2760,6599 2758,6596 2745,6590ZM2955,6585C3031,6566 3118,6522 3137,6493C3156,6465 3151,6333 3132,6321C3125,6317 3122,6305 3126,6294C3130,6282 3129,6279 3123,6287C3112,6302 3037,6293 3047,6277C3050,6272 3049,6270 3043,6273C3033,6279 2941,6239 2898,6209C2861,6182 2850,6185 2850,6224C2850,6271 2826,6323 2785,6365C2741,6408 2686,6414 2653,6378C2601,6320 2587,6251 2615,6184C2630,6147 2627,6125 2609,6136C2603,6139 2578,6144 2553,6147C2527,6150 2496,6156 2483,6161C2470,6166 2429,6170 2392,6171C2286,6173 2282,6175 2254,6255C2231,6321 2230,6327 2244,6358C2270,6411 2341,6482 2395,6505C2456,6532 2561,6544 2613,6529C2645,6520 2657,6522 2688,6538C2726,6557 2816,6587 2860,6593C2874,6596 2887,6598 2890,6599C2893,6599 2923,6593 2955,6585ZM3033,6593C3026,6591 3014,6591 3008,6593C3001,6596 3006,6598 3020,6598C3034,6598 3039,6596 3033,6593ZM3479,6589C3541,6570 3604,6536 3643,6501C3675,6472 3682,6469 3696,6481C3707,6490 3749,6496 3821,6498C3923,6502 3932,6501 3972,6477C3996,6463 4030,6436 4049,6417C4070,6395 4089,6384 4099,6387C4113,6391 4113,6390 4100,6381C4088,6373 4087,6367 4097,6352C4109,6332 4100,6292 4063,6208C4043,6161 4020,6154 3875,6146C3815,6143 3755,6137 3742,6134C3721,6128 3720,6130 3727,6156C3737,6191 3737,6276 3727,6311C3718,6347 3687,6379 3652,6389C3612,6401 3552,6365 3523,6313C3500,6273 3486,6170 3504,6170C3509,6170 3511,6167 3507,6164C3504,6161 3486,6168 3468,6181C3450,6194 3426,6210 3415,6216C3328,6264 3276,6290 3265,6290C3257,6290 3238,6302 3221,6316C3192,6340 3190,6346 3190,6407C3190,6471 3211,6530 3235,6530C3240,6530 3251,6534 3259,6539C3271,6547 3271,6552 3262,6563C3252,6575 3256,6577 3292,6574C3316,6572 3346,6576 3360,6584C3391,6602 3433,6603 3479,6589ZM3115,6560C3118,6555 3116,6550 3111,6550C3105,6550 3100,6555 3100,6560C3100,6566 3102,6570 3104,6570C3107,6570 3112,6566 3115,6560ZM3645,6540C3648,6535 3646,6530 3641,6530C3635,6530 3630,6535 3630,6540C3630,6546 3632,6550 3634,6550C3637,6550 3642,6546 3645,6540ZM3837,6534C3834,6531 3825,6530 3818,6533C3810,6536 3813,6539 3824,6539C3835,6540 3841,6537 3837,6534ZM2350,6506C2350,6503 2346,6498 2340,6495C2335,6492 2330,6494 2330,6499C2330,6505 2335,6510 2340,6510C2346,6510 2350,6508 2350,6506ZM3167,6488C3164,6480 3161,6483 3161,6494C3160,6505 3163,6511 3166,6507C3169,6504 3170,6495 3167,6488ZM4025,6480C4022,6475 4014,6470 4009,6470C4003,6470 4002,6475 4005,6480C4008,6486 4016,6490 4021,6490C4027,6490 4028,6486 4025,6480ZM2290,6457C2290,6455 2280,6445 2268,6434L2245,6415L2264,6438C2282,6459 2290,6465 2290,6457ZM2690,6370C2690,6365 2685,6360 2679,6360C2674,6360 2672,6365 2675,6370C2678,6376 2683,6380 2686,6380C2688,6380 2690,6376 2690,6370ZM4307,6374C4304,6371 4295,6370 4288,6373C4280,6376 4283,6379 4294,6379C4305,6380 4311,6377 4307,6374ZM4405,6370C4408,6364 4404,6363 4396,6366C4378,6373 4375,6380 4389,6380C4395,6380 4402,6376 4405,6370ZM2135,6360C2138,6354 2134,6353 2126,6356C2108,6363 2105,6370 2119,6370C2125,6370 2132,6366 2135,6360ZM3675,6360C3678,6355 3677,6350 3671,6350C3666,6350 3658,6355 3655,6360C3652,6366 3653,6370 3659,6370C3664,6370 3672,6366 3675,6360ZM2753,6333C2811,6272 2822,6184 2782,6105C2758,6057 2748,6058 2712,6108C2640,6209 2631,6289 2685,6343C2708,6367 2722,6364 2753,6333ZM2775,6350C2778,6345 2777,6340 2771,6340C2766,6340 2758,6345 2755,6350C2752,6356 2753,6360 2759,6360C2764,6360 2772,6356 2775,6350ZM4190,6340C4166,6325 4154,6329 4176,6344C4186,6352 4197,6356 4200,6354C4202,6351 4198,6345 4190,6340ZM2139,6327C2178,6308 2186,6298 2206,6241C2240,6150 2238,6139 2177,6086C2148,6061 2102,6014 2075,5980C2027,5920 2010,5908 2010,5933C2010,5959 1956,6029 1920,6049C1897,6062 1865,6070 1839,6070C1784,6069 1761,6042 1753,5966C1747,5909 1761,5873 1807,5821C1819,5807 1827,5793 1825,5790C1822,5786 1792,5780 1758,5776C1698,5770 1644,5755 1573,5724C1516,5698 1496,5705 1440,5770C1388,5830 1388,5831 1394,5883C1408,5985 1479,6098 1550,6127L1584,6142L1560,6157C1544,6166 1542,6169 1555,6164C1580,6155 1598,6155 1678,6165C1712,6169 1740,6176 1740,6181C1740,6198 1851,6300 1896,6324C1963,6358 2074,6360 2139,6327ZM4424,6338C4471,6324 4558,6243 4581,6192C4589,6173 4600,6162 4608,6165C4615,6168 4619,6166 4616,6161C4613,6156 4640,6149 4677,6145C4802,6132 4915,6048 4944,5949C4960,5894 4962,5790 4947,5790C4942,5790 4941,5800 4945,5813C4949,5827 4933,5815 4898,5776C4848,5722 4842,5718 4810,5722C4791,5725 4751,5737 4721,5748C4691,5760 4640,5772 4606,5776C4531,5784 4525,5788 4544,5809C4552,5818 4569,5847 4580,5874C4598,5912 4600,5932 4595,5973C4584,6047 4565,6069 4512,6070C4440,6070 4392,6035 4350,5951L4328,5906L4292,5951C4272,5975 4220,6029 4176,6072C4104,6141 4098,6151 4104,6177C4108,6192 4112,6215 4113,6227C4114,6239 4117,6246 4119,6244C4122,6242 4131,6256 4141,6277C4153,6304 4169,6318 4201,6331C4253,6352 4364,6355 4424,6338ZM3675,6310C3708,6247 3686,6146 3626,6088L3585,6049L3568,6087C3529,6175 3533,6265 3580,6312C3618,6350 3655,6349 3675,6310ZM4541,6291C4552,6264 4535,6272 4519,6302C4511,6318 4511,6321 4521,6318C4527,6316 4537,6304 4541,6291ZM3100,6266C3100,6264 3093,6259 3084,6256C3076,6253 3072,6254 3075,6260C3081,6270 3100,6274 3100,6266ZM3140,6251C3140,6241 3103,6197 2995,6080C2913,5992 2869,5908 2841,5791C2830,5745 2819,5706 2817,5704C2815,5701 2796,5728 2775,5762C2715,5860 2625,5942 2520,5995C2471,6020 2426,6040 2420,6040C2406,6040 2310,6100 2310,6109C2310,6118 2450,6112 2543,6099C2619,6089 2692,6056 2729,6016C2762,5981 2787,5982 2795,6020C2799,6036 2806,6052 2811,6055C2826,6065 2821,6083 2804,6076C2795,6073 2792,6074 2795,6081C2799,6086 2807,6089 2813,6087C2820,6085 2848,6103 2875,6127C2927,6172 3055,6240 3089,6240C3100,6240 3112,6245 3115,6250C3123,6263 3140,6263 3140,6251ZM3300,6222C3330,6208 3372,6186 3393,6173C3423,6154 3434,6151 3446,6161C3456,6169 3460,6169 3460,6161C3460,6155 3455,6150 3449,6150C3442,6150 3460,6125 3489,6095C3517,6065 3543,6028 3546,6011C3554,5975 3580,5962 3597,5987C3630,6035 3690,6071 3772,6090C3824,6102 4010,6103 4010,6092C4010,6087 3971,6064 3923,6041C3874,6017 3816,5988 3792,5976C3727,5944 3644,5866 3593,5788C3553,5727 3549,5716 3559,5694L3570,5669L3546,5687C3529,5700 3520,5719 3516,5752C3497,5892 3439,5997 3300,6138C3240,6198 3194,6251 3198,6254C3205,6262 3232,6254 3300,6222ZM3717,6238C3714,6230 3711,6233 3711,6244C3710,6255 3713,6261 3716,6257C3719,6254 3720,6245 3717,6238ZM1675,6190C1678,6184 1674,6183 1666,6186C1648,6193 1645,6200 1659,6200C1665,6200 1672,6196 1675,6190ZM3272,6097C3387,5982 3428,5914 3461,5782C3508,5595 3468,5451 3305,5223C3242,5135 3214,5082 3194,5012C3187,4987 3167,5005 3155,5047C3144,5083 3106,5156 3091,5170C3076,5183 3010,5269 3010,5275C3010,5278 2997,5301 2980,5325C2964,5349 2938,5396 2922,5429C2906,5463 2892,5488 2889,5486C2887,5484 2884,5496 2884,5513C2883,5531 2879,5573 2875,5606C2865,5690 2891,5824 2937,5918C2962,5968 2996,6015 3052,6073C3095,6118 3138,6165 3147,6178C3155,6190 3164,6200 3166,6200C3168,6200 3215,6154 3272,6097ZM3436,6173C3429,6166 3410,6180 3410,6192C3410,6198 3416,6198 3425,6190C3434,6183 3438,6175 3436,6173ZM4090,6190C4090,6185 4088,6180 4086,6180C4083,6180 4078,6185 4075,6190C4072,6196 4074,6200 4079,6200C4085,6200 4090,6196 4090,6190ZM4660,6180C4660,6175 4654,6170 4646,6170C4638,6170 4628,6175 4625,6180C4622,6186 4628,6190 4639,6190C4651,6190 4660,6186 4660,6180ZM4080,6160C4080,6155 4078,6150 4076,6150C4073,6150 4068,6155 4065,6160C4062,6166 4064,6170 4069,6170C4075,6170 4080,6166 4080,6160ZM2680,6120C2680,6115 2678,6110 2676,6110C2673,6110 2668,6115 2665,6120C2662,6126 2664,6130 2669,6130C2675,6130 2680,6126 2680,6120ZM3070,6121C3070,6116 3063,6109 3054,6106C3040,6101 3039,6102 3050,6115C3064,6132 3070,6134 3070,6121ZM3973,6123C3966,6121 3954,6121 3948,6123C3941,6126 3946,6128 3960,6128C3974,6128 3979,6126 3973,6123ZM3777,6114C3774,6111 3765,6110 3758,6113C3750,6116 3753,6119 3764,6119C3775,6120 3781,6117 3777,6114ZM2700,6085C2707,6076 2708,6070 2702,6070C2697,6070 2690,6077 2686,6085C2683,6093 2682,6100 2684,6100C2686,6100 2693,6093 2700,6085ZM3544,6085C3547,6077 3545,6070 3540,6070C3534,6070 3530,6077 3530,6085C3530,6093 3532,6100 3534,6100C3536,6100 3540,6093 3544,6085ZM4135,6090C4138,6084 4134,6083 4126,6086C4108,6093 4105,6100 4119,6100C4125,6100 4132,6096 4135,6090ZM4880,6090C4880,6085 4878,6080 4876,6080C4873,6080 4868,6085 4865,6090C4862,6096 4864,6100 4869,6100C4875,6100 4880,6096 4880,6090ZM2241,6026C2235,6001 2215,5950 2196,5913C2141,5803 2126,5726 2133,5582L2138,5459L2113,5475C2100,5484 2080,5500 2069,5511C2058,5522 2041,5529 2032,5526C2023,5523 2008,5525 2000,5531C1988,5539 1991,5540 2009,5535C2050,5523 2023,5548 1965,5575C1891,5608 1811,5627 1705,5634C1656,5638 1600,5644 1581,5648L1547,5655L1596,5677C1731,5736 1899,5753 1968,5716C2017,5691 2030,5700 2030,5761C2030,5812 2062,5893 2097,5932C2105,5941 2109,5953 2105,5959C2101,5966 2105,5967 2116,5963C2130,5958 2132,5960 2127,5974C2123,5983 2124,5989 2128,5986C2133,5983 2161,6003 2190,6030C2220,6057 2246,6077 2248,6075C2251,6073 2247,6051 2241,6026ZM2315,6070C2318,6065 2316,6060 2311,6060C2305,6060 2300,6065 2300,6070C2300,6076 2302,6080 2304,6080C2307,6080 2312,6076 2315,6070ZM3655,6070C3652,6065 3644,6060 3639,6060C3633,6060 3632,6065 3635,6070C3638,6076 3646,6080 3651,6080C3657,6080 3658,6076 3655,6070ZM4147,6033C4254,5942 4333,5815 4332,5738C4331,5694 4351,5679 4378,5703C4429,5748 4557,5748 4698,5703C4818,5665 4807,5648 4653,5635C4528,5623 4515,5621 4460,5605C4399,5586 4366,5567 4377,5556C4381,5552 4377,5552 4367,5556C4348,5563 4317,5543 4326,5529C4329,5524 4324,5523 4316,5526C4307,5529 4284,5515 4257,5491C4233,5468 4210,5450 4206,5450C4203,5450 4203,5471 4206,5498C4220,5608 4221,5670 4211,5726C4199,5790 4152,5920 4142,5920C4134,5920 4118,5954 4095,6019C4068,6095 4073,6096 4147,6033ZM1875,6042C1872,6039 1864,6042 1857,6049C1848,6059 1849,6060 1863,6054C1873,6051 1878,6045 1875,6042ZM3620,6046C3620,6043 3616,6038 3610,6035C3605,6032 3600,6034 3600,6039C3600,6045 3605,6050 3610,6050C3616,6050 3620,6048 3620,6046ZM4071,6033C4084,6017 4083,6016 4068,6029C4058,6036 4050,6044 4050,6046C4050,6054 4058,6049 4071,6033ZM4487,6044C4484,6041 4475,6040 4468,6043C4460,6046 4463,6049 4474,6049C4485,6050 4491,6047 4487,6044ZM2372,6012C2401,5996 2457,5970 2495,5954C2552,5931 2580,5910 2645,5845C2689,5801 2734,5746 2744,5723C2754,5700 2767,5683 2773,5687C2779,5690 2780,5688 2776,5681C2772,5675 2778,5650 2789,5627C2838,5525 2823,5314 2753,5125C2745,5103 2736,5046 2733,4997L2727,4910L2671,4969C2612,5031 2476,5125 2459,5115C2454,5111 2451,5113 2452,5117C2454,5122 2427,5150 2393,5178C2325,5235 2253,5324 2227,5385C2201,5445 2170,5578 2170,5627C2170,5695 2199,5808 2235,5880C2252,5916 2273,5966 2281,5993C2288,6019 2300,6040 2307,6040C2313,6040 2343,6027 2372,6012ZM4055,5993C4065,5966 4088,5916 4106,5880C4162,5767 4177,5671 4160,5536C4144,5403 4101,5318 4003,5221C3960,5179 3927,5142 3928,5138C3929,5133 3927,5131 3922,5131C3905,5134 3893,5129 3874,5113C3864,5103 3835,5084 3810,5071C3757,5042 3709,5004 3716,4997C3719,4994 3713,4989 3703,4986C3693,4983 3674,4964 3661,4945C3648,4926 3634,4910 3630,4910C3626,4910 3622,4941 3621,4980C3621,5018 3612,5076 3601,5107C3531,5326 3515,5450 3544,5572C3551,5603 3577,5664 3601,5706C3648,5788 3766,5920 3794,5920C3803,5920 3810,5924 3810,5928C3810,5933 3848,5952 3894,5970C3941,5989 3976,6008 3974,6012C3971,6016 3978,6020 3989,6020C4000,6020 4012,6025 4015,6030C4027,6049 4037,6040 4055,5993ZM4940,6030C4940,6025 4938,6020 4936,6020C4933,6020 4928,6025 4925,6030C4922,6036 4924,6040 4929,6040C4935,6040 4940,6036 4940,6030ZM1897,6008C1940,5979 1985,5889 1985,5833C1985,5768 1970,5761 1911,5799C1846,5841 1809,5891 1803,5945C1793,6026 1832,6051 1897,6008ZM4435,6020C4432,6015 4424,6010 4419,6010C4413,6010 4412,6015 4415,6020C4418,6026 4426,6030 4431,6030C4437,6030 4438,6026 4435,6020ZM4538,6018C4570,5986 4541,5871 4488,5824C4464,5801 4407,5770 4392,5770C4373,5770 4369,5850 4385,5905C4403,5967 4422,5993 4465,6015C4501,6033 4522,6034 4538,6018ZM3590,6006C3590,6003 3586,5998 3580,5995C3575,5992 3570,5994 3570,5999C3570,6005 3575,6010 3580,6010C3586,6010 3590,6008 3590,6006ZM3900,6000C3900,5995 3892,5990 3883,5990C3868,5990 3867,5992 3880,6000C3899,6012 3900,6012 3900,6000ZM2254,5974C2257,5966 2256,5962 2250,5965C2244,5968 2240,5975 2240,5981C2240,5995 2247,5992 2254,5974ZM1777,5958C1774,5950 1771,5953 1771,5964C1770,5975 1773,5981 1776,5977C1779,5974 1780,5965 1777,5958ZM2550,5959C2563,5952 2563,5951 2550,5951C2542,5951 2524,5957 2510,5966L2485,5981L2510,5974C2524,5971 2542,5964 2550,5959ZM2938,5960C2931,5950 2924,5942 2923,5944C2917,5950 2932,5980 2941,5980C2946,5980 2945,5971 2938,5960ZM3867,5974C3864,5971 3855,5970 3848,5973C3840,5976 3843,5979 3854,5979C3865,5980 3871,5977 3867,5974ZM3830,5966C3830,5964 3823,5959 3814,5956C3806,5953 3802,5954 3805,5960C3811,5970 3830,5974 3830,5966ZM2606,5923C2600,5917 2570,5932 2570,5941C2570,5946 2579,5945 2590,5938C2600,5931 2608,5924 2606,5923ZM3789,5947C3787,5946 3776,5938 3765,5930C3746,5916 3746,5916 3759,5933C3766,5942 3777,5950 3783,5950C3789,5950 3791,5949 3789,5947ZM4107,5928C4104,5920 4101,5923 4101,5934C4100,5945 4103,5951 4106,5947C4109,5944 4110,5935 4107,5928ZM2888,5860C2873,5836 2869,5839 2877,5868C2880,5880 2886,5887 2891,5884C2896,5881 2894,5870 2888,5860ZM2675,5862C2672,5859 2664,5862 2657,5869C2648,5879 2649,5880 2663,5874C2673,5871 2678,5865 2675,5862ZM3695,5870C3692,5865 3684,5860 3679,5860C3673,5860 3672,5865 3675,5870C3678,5876 3686,5880 3691,5880C3697,5880 3698,5876 3695,5870ZM4150,5845C4150,5840 4145,5842 4140,5850C4135,5858 4130,5870 4130,5875C4130,5881 4135,5878 4140,5870C4145,5862 4150,5851 4150,5845ZM5017,5848C5014,5840 5011,5843 5011,5854C5010,5865 5013,5871 5016,5867C5019,5864 5020,5855 5017,5848ZM5097,5834C5094,5831 5085,5830 5078,5833C5070,5836 5073,5839 5084,5839C5095,5840 5101,5837 5097,5834ZM1273,5823C1266,5821 1254,5821 1248,5823C1241,5826 1246,5828 1260,5828C1274,5828 1279,5826 1273,5823ZM5193,5783C5284,5742 5350,5654 5350,5574C5350,5555 5354,5540 5360,5540C5365,5540 5367,5534 5364,5527C5361,5519 5385,5502 5428,5481C5553,5422 5623,5321 5619,5208C5616,5122 5613,5116 5572,5093C5552,5082 5510,5059 5478,5041C5413,5005 5404,5006 5336,5067C5309,5091 5261,5127 5229,5147C5196,5167 5170,5186 5170,5189C5170,5193 5184,5204 5201,5214C5280,5260 5318,5391 5266,5439C5214,5488 5109,5471 5050,5404C5033,5385 5016,5372 5011,5375C5005,5378 4994,5406 4985,5438C4975,5469 4950,5529 4929,5571C4883,5659 4881,5685 4915,5724C4932,5744 4937,5757 4930,5764C4914,5780 4919,5794 4936,5779C4949,5768 4955,5770 4973,5794C4994,5820 4997,5821 5065,5815C5107,5811 5158,5798 5193,5783ZM1401,5739C1455,5676 1461,5664 1456,5637C1453,5620 1443,5599 1435,5590C1419,5572 1360,5461 1360,5449C1360,5446 1353,5426 1344,5405L1329,5368L1302,5397C1258,5446 1223,5465 1205,5450C1192,5439 1191,5440 1196,5454C1201,5467 1194,5470 1151,5470C1109,5470 1094,5465 1075,5445C1020,5391 1055,5271 1141,5219C1162,5206 1180,5192 1180,5189C1180,5185 1165,5176 1148,5169C1111,5154 1008,5086 972,5053C959,5041 933,5026 915,5020C885,5010 877,5013 817,5050L752,5091L745,5155C738,5223 752,5314 776,5361C796,5400 875,5467 924,5485C963,5500 968,5506 985,5558C1035,5719 1129,5787 1327,5809C1334,5809 1367,5778 1401,5739ZM4177,5788C4174,5780 4171,5783 4171,5794C4170,5805 4173,5811 4176,5807C4179,5804 4180,5795 4177,5788ZM1414,5774C1417,5766 1416,5762 1410,5765C1404,5768 1400,5775 1400,5781C1400,5795 1407,5792 1414,5774ZM1090,5756C1090,5753 1086,5748 1080,5745C1075,5742 1070,5744 1070,5749C1070,5755 1075,5760 1080,5760C1086,5760 1090,5758 1090,5756ZM3592,5724C3586,5713 3581,5711 3576,5719C3572,5725 3574,5730 3579,5730C3585,5730 3590,5738 3591,5748C3591,5757 3594,5760 3596,5753C3599,5746 3597,5733 3592,5724ZM5315,5730C5325,5719 5329,5710 5324,5710C5319,5710 5309,5719 5302,5730C5295,5741 5291,5750 5293,5750C5295,5750 5305,5741 5315,5730ZM1060,5726C1060,5723 1056,5718 1050,5715C1045,5712 1040,5714 1040,5719C1040,5725 1045,5730 1050,5730C1056,5730 1060,5728 1060,5726ZM2788,5705C2785,5702 2779,5707 2776,5717C2770,5731 2771,5732 2781,5723C2788,5716 2791,5708 2788,5705ZM4880,5710C4880,5705 4875,5700 4869,5700C4864,5700 4862,5705 4865,5710C4868,5716 4873,5720 4876,5720C4878,5720 4880,5716 4880,5710ZM5360,5662C5360,5649 5357,5650 5345,5666C5326,5691 5326,5706 5345,5690C5353,5683 5360,5670 5360,5662ZM4860,5680C4860,5675 4858,5670 4856,5670C4853,5670 4848,5675 4845,5680C4842,5686 4844,5690 4849,5690C4855,5690 4860,5686 4860,5680ZM1010,5660C1010,5655 1005,5650 999,5650C994,5650 992,5655 995,5660C998,5666 1003,5670 1006,5670C1008,5670 1010,5666 1010,5660ZM1845,5600C1848,5595 1847,5590 1841,5590C1836,5590 1828,5595 1825,5600C1822,5606 1823,5610 1829,5610C1834,5610 1842,5606 1845,5600ZM4535,5600C4532,5595 4524,5590 4519,5590C4513,5590 4512,5595 4515,5600C4518,5606 4526,5610 4531,5610C4537,5610 4538,5606 4535,5600ZM4900,5589C4900,5583 4896,5582 4890,5585C4885,5588 4880,5596 4880,5601C4880,5607 4885,5608 4890,5605C4896,5602 4900,5594 4900,5589ZM1734,5580C1838,5572 1863,5566 1924,5537C2008,5496 2108,5423 2148,5372C2228,5271 2261,5154 2280,4915C2284,4853 2297,4779 2308,4745C2319,4712 2327,4684 2325,4682C2323,4679 2309,4687 2293,4697C2253,4725 2168,4756 2075,4775C1836,4825 1687,4926 1605,5094C1558,5191 1539,5270 1541,5365C1542,5409 1543,5477 1544,5515C1545,5554 1549,5588 1555,5592C1560,5596 1576,5597 1590,5594C1604,5592 1669,5586 1734,5580ZM4799,5491C4814,5348 4813,5289 4794,5222C4748,5060 4665,4942 4551,4874C4491,4838 4385,4800 4262,4769C4198,4753 4119,4727 4086,4710C4029,4680 4007,4677 4027,4702C4050,4731 4061,4792 4070,4927C4078,5063 4083,5090 4116,5207C4155,5345 4253,5450 4426,5538C4478,5564 4602,5586 4766,5596C4785,5598 4788,5590 4799,5491ZM4877,5568C4934,5461 4952,5404 4957,5318C4961,5259 4958,5220 4950,5200C4943,5183 4940,5166 4944,5163C4948,5159 4981,5157 5018,5158C5080,5161 5092,5158 5166,5121C5211,5098 5267,5062 5291,5039L5335,4999L5284,5005C5255,5008 5204,5020 5170,5031C5119,5047 5089,5051 5006,5047C4910,5044 4800,5020 4772,4998C4745,4975 4750,5001 4783,5062C4802,5097 4821,5141 4825,5160C4829,5179 4836,5200 4841,5206C4857,5226 4862,5340 4852,5465C4840,5611 4845,5628 4877,5568ZM1497,5398C1495,5247 1498,5209 1511,5180C1525,5151 1582,5031 1598,4996C1601,4991 1592,4990 1579,4994C1407,5049 1313,5057 1195,5028C1151,5017 1111,5006 1105,5002C1094,4995 1089,4994 1015,4984C969,4977 966,4978 979,4994C995,5014 1113,5093 1178,5127C1216,5148 1241,5153 1310,5155C1381,5157 1396,5160 1398,5174C1400,5183 1397,5196 1392,5203C1372,5229 1370,5289 1386,5357C1408,5444 1471,5580 1490,5580C1494,5580 1498,5498 1497,5398ZM4187,5528C4184,5520 4181,5523 4181,5534C4180,5545 4183,5551 4186,5547C4189,5544 4190,5535 4187,5528ZM5460,5500C5468,5495 5471,5490 5465,5490C5460,5490 5448,5495 5440,5500C5432,5505 5430,5510 5435,5510C5441,5510 5452,5505 5460,5500ZM2085,5470C2095,5459 2099,5450 2094,5450C2089,5450 2079,5459 2072,5470C2065,5481 2061,5490 2063,5490C2065,5490 2075,5481 2085,5470ZM4827,5468C4824,5460 4821,5463 4821,5474C4820,5485 4823,5491 4826,5487C4829,5484 4830,5475 4827,5468ZM5495,5480C5492,5475 5484,5470 5479,5470C5473,5470 5472,5475 5475,5480C5478,5486 5486,5490 5491,5490C5497,5490 5498,5486 5495,5480ZM5195,5440C5192,5435 5183,5430 5177,5430C5170,5430 5171,5434 5180,5440C5199,5452 5203,5452 5195,5440ZM1240,5384C1260,5371 1284,5346 1294,5328C1316,5291 1331,5222 1319,5214C1306,5207 1161,5258 1140,5278C1104,5311 1086,5402 1113,5414C1137,5424 1205,5408 1240,5384ZM5250,5379C5250,5348 5213,5284 5183,5262C5118,5216 5010,5192 5010,5224C5010,5250 5049,5326 5083,5365C5111,5397 5125,5405 5166,5410C5223,5417 5250,5407 5250,5379ZM2934,5303C2950,5277 2968,5251 2972,5245C2977,5240 3008,5199 3040,5156C3087,5092 3103,5061 3120,4996C3157,4862 3160,4812 3160,4333C3160,3958 3158,3870 3147,3870C3140,3870 3126,3891 3117,3918C3073,4046 3059,4087 3051,4105C3046,4116 3033,4150 3022,4180C3011,4210 2990,4264 2977,4300C2963,4336 2946,4385 2939,4410C2932,4435 2923,4460 2918,4466C2913,4472 2903,4502 2894,4531C2885,4561 2874,4590 2870,4595C2865,4601 2845,4659 2825,4725C2777,4883 2767,5009 2797,5102C2834,5216 2849,5274 2855,5335C2864,5412 2869,5420 2889,5382C2898,5365 2918,5330 2934,5303ZM3436,5365C3433,5357 3425,5350 3418,5351C3408,5351 3408,5353 3418,5357C3424,5359 3430,5371 3431,5383C3431,5395 3434,5399 3437,5392C3440,5385 3439,5373 3436,5365ZM3495,5332C3504,5256 3526,5166 3550,5108C3580,5038 3575,4832 3543,4750C3539,4742 3527,4704 3514,4665C3502,4627 3464,4516 3430,4420C3396,4324 3357,4211 3343,4170C3330,4129 3310,4073 3300,4045C3290,4018 3271,3967 3259,3932C3247,3898 3232,3871 3226,3873C3213,3877 3212,3893 3209,4430C3207,4856 3208,4872 3242,4999C3262,5074 3274,5096 3350,5200C3386,5248 3404,5278 3458,5377C3477,5411 3488,5398 3495,5332ZM5080,5386C5080,5383 5076,5378 5070,5375C5065,5372 5060,5374 5060,5379C5060,5385 5065,5390 5070,5390C5076,5390 5080,5388 5080,5386ZM4124,5294C4127,5286 4126,5282 4120,5285C4114,5288 4110,5295 4110,5301C4110,5315 4117,5312 4124,5294ZM5205,5240C5202,5235 5193,5230 5187,5230C5180,5230 5181,5234 5190,5240C5209,5252 5213,5252 5205,5240ZM2341,5159C2386,5117 2461,5062 2535,5017C2657,4944 2728,4839 2811,4610C2834,4547 2856,4486 2861,4475C2866,4464 2874,4442 2879,4425C2884,4409 2907,4346 2930,4285C3000,4099 3007,4078 3044,3975C3064,3920 3080,3869 3080,3863C3080,3837 3054,3852 3018,3899C2998,3925 2926,4012 2858,4092C2790,4171 2715,4261 2690,4290C2665,4320 2635,4355 2622,4368C2569,4423 2456,4569 2418,4632C2366,4720 2330,4822 2330,4887C2330,4966 2309,5143 2298,5157C2290,5167 2294,5190 2305,5190C2306,5190 2323,5176 2341,5159ZM4040,5102C4033,5065 4025,4979 4020,4910C4013,4796 4009,4779 3976,4710C3917,4586 3889,4548 3570,4165C3529,4116 3474,4048 3449,4015C3423,3982 3393,3946 3381,3936C3370,3925 3360,3913 3360,3909C3360,3898 3311,3850 3300,3850C3294,3850 3290,3856 3290,3864C3290,3878 3371,4115 3389,4155C3394,4166 3408,4207 3420,4245C3431,4284 3448,4330 3456,4348C3465,4366 3469,4388 3466,4396C3462,4406 3464,4408 3471,4404C3479,4399 3481,4408 3477,4436C3473,4459 3474,4467 3478,4456C3487,4434 3490,4440 3531,4565C3544,4604 3558,4640 3562,4646C3567,4652 3577,4680 3585,4707C3605,4775 3689,4912 3736,4954C3758,4972 3820,5018 3875,5056C3930,5093 3991,5138 4010,5157C4029,5175 4047,5185 4048,5179C4050,5174 4047,5139 4040,5102ZM1170,5150C1170,5145 1165,5140 1159,5140C1154,5140 1152,5145 1155,5150C1158,5156 1163,5160 1166,5160C1168,5160 1170,5156 1170,5150ZM3090,5139C3090,5133 3086,5132 3080,5135C3075,5138 3070,5146 3070,5151C3070,5157 3075,5158 3080,5155C3086,5152 3090,5144 3090,5139ZM3970,5150C3970,5145 3965,5140 3959,5140C3954,5140 3952,5145 3955,5150C3958,5156 3963,5160 3966,5160C3968,5160 3970,5156 3970,5150ZM5200,5140C5200,5135 5195,5130 5189,5130C5184,5130 5182,5135 5185,5140C5188,5146 5193,5150 5196,5150C5198,5150 5200,5146 5200,5140ZM5708,5031C5774,4997 5819,4954 5852,4890C5871,4853 5875,4828 5876,4752C5878,4662 5879,4659 5913,4621C5931,4600 5960,4557 5976,4524C6014,4445 6016,4345 5982,4253C5957,4188 5957,4188 5860,4173C5752,4156 5754,4156 5726,4193C5712,4211 5700,4230 5700,4234C5700,4243 5630,4337 5596,4373C5582,4388 5570,4404 5570,4408C5570,4413 5589,4421 5613,4427C5701,4452 5779,4550 5758,4611C5746,4646 5679,4680 5622,4680C5577,4680 5500,4654 5500,4638C5500,4633 5496,4630 5490,4632C5481,4635 5471,4762 5466,4920L5465,4974L5540,5017C5581,5041 5623,5060 5633,5060C5643,5060 5676,5047 5708,5031ZM3240,5040C3240,5035 3235,5030 3229,5030C3224,5030 3222,5035 3225,5040C3228,5046 3233,5050 3236,5050C3238,5050 3240,5046 3240,5040ZM5340,5040C5340,5035 5338,5030 5336,5030C5333,5030 5328,5035 5325,5040C5322,5046 5324,5050 5329,5050C5335,5050 5340,5046 5340,5040ZM811,4994L883,4948L876,4897C854,4738 851,4692 856,4668C863,4635 854,4634 802,4656C723,4690 610,4666 589,4612C583,4597 582,4569 585,4550C594,4502 666,4433 717,4425C785,4414 785,4413 733,4357C707,4327 665,4272 641,4233C585,4144 573,4136 497,4145C424,4154 391,4183 364,4262C327,4374 362,4512 452,4615C488,4656 490,4661 490,4729C490,4814 527,4906 581,4956C615,4988 704,5039 727,5040C734,5040 772,5019 811,4994ZM4927,5024C4924,5021 4915,5020 4908,5023C4900,5026 4903,5029 4914,5029C4925,5030 4931,5027 4927,5024ZM5500,5020C5500,5015 5498,5010 5496,5010C5493,5010 5488,5015 5485,5020C5482,5026 5484,5030 5489,5030C5495,5030 5500,5026 5500,5020ZM1450,5000C1458,4995 1461,4990 1455,4990C1450,4990 1438,4995 1430,5000C1422,5005 1420,5010 1425,5010C1431,5010 1442,5005 1450,5000ZM1497,5004C1494,5001 1485,5000 1478,5003C1470,5006 1473,5009 1484,5009C1495,5010 1501,5007 1497,5004ZM2610,5000C2610,4995 2608,4990 2606,4990C2603,4990 2598,4995 2595,5000C2592,5006 2594,5010 2599,5010C2605,5010 2610,5006 2610,5000ZM3755,5000C3758,4994 3754,4993 3746,4996C3728,5003 3725,5010 3739,5010C3745,5010 3752,5006 3755,5000ZM5380,5006C5380,5004 5373,4999 5364,4996C5356,4993 5352,4994 5355,5000C5361,5010 5380,5014 5380,5006ZM5208,4967C5254,4952 5305,4940 5322,4940C5356,4940 5356,4946 5320,4825C5309,4787 5302,4744 5304,4730C5307,4716 5307,4711 5303,4719C5300,4726 5291,4711 5281,4683C5227,4524 5042,4361 4880,4330C4808,4316 4655,4317 4537,4332C4465,4341 4427,4341 4387,4333C4359,4327 4331,4325 4327,4330C4322,4334 4333,4353 4350,4371C4385,4409 4410,4453 4440,4532C4494,4672 4585,4819 4649,4869C4695,4905 4818,4968 4860,4977C4876,4980 4888,4985 4885,4989C4883,4993 4936,4996 5003,4995C5108,4995 5136,4991 5208,4967ZM1530,4955C1626,4920 1698,4872 1752,4807C1795,4756 1805,4741 1836,4683C1847,4662 1858,4654 1868,4658C1880,4662 1882,4658 1878,4642C1874,4630 1884,4591 1900,4551C1938,4458 1946,4444 1992,4382C2014,4352 2030,4326 2027,4324C2025,4321 1992,4324 1956,4330C1907,4338 1872,4338 1827,4329C1793,4323 1700,4318 1620,4318C1497,4318 1465,4321 1411,4340C1330,4367 1272,4406 1190,4489C1118,4561 1057,4672 1045,4750C1041,4775 1029,4817 1019,4843C992,4911 994,4930 1028,4931C1043,4931 1096,4944 1145,4961C1227,4987 1245,4990 1345,4986C1434,4983 1469,4978 1530,4955ZM1555,4980C1558,4975 1556,4970 1551,4970C1545,4970 1540,4975 1540,4980C1540,4986 1542,4990 1544,4990C1547,4990 1552,4986 1555,4980ZM2317,4888C2314,4880 2311,4883 2311,4894C2310,4905 2313,4911 2316,4907C2319,4904 2320,4895 2317,4888ZM973,4819C1002,4701 1031,4617 1051,4588C1062,4573 1070,4556 1070,4550C1070,4545 1108,4501 1155,4453C1201,4405 1237,4364 1235,4362C1233,4360 1199,4357 1158,4356C1080,4353 957,4323 966,4309C969,4304 964,4303 956,4306C943,4311 890,4290 862,4267C851,4259 851,4255 862,4247C871,4241 869,4240 856,4244C846,4248 830,4244 821,4236C788,4207 667,4130 653,4130C643,4130 646,4143 666,4178C741,4308 847,4414 914,4426C966,4434 990,4447 990,4465C990,4479 978,4485 957,4481C952,4480 952,4485 956,4491C959,4497 957,4506 951,4510C928,4523 897,4670 903,4735C912,4825 930,4902 943,4897C949,4895 962,4860 973,4819ZM5417,4863C5421,4842 5425,4773 5425,4710C5425,4609 5422,4590 5401,4550C5388,4525 5371,4497 5363,4488C5343,4466 5353,4440 5381,4440C5454,4440 5515,4400 5596,4299C5622,4267 5647,4243 5653,4247C5659,4251 5660,4248 5655,4241C5651,4234 5653,4217 5661,4204C5668,4191 5671,4177 5667,4174C5660,4167 5586,4208 5550,4240C5497,4287 5347,4357 5293,4360C5283,4360 5238,4364 5192,4368L5109,4375L5183,4450C5282,4552 5339,4657 5365,4790C5379,4862 5391,4900 5400,4900C5405,4900 5413,4883 5417,4863ZM1924,4764C1952,4755 1993,4742 2015,4734C2037,4727 2078,4717 2105,4714C2233,4696 2357,4607 2515,4416C2537,4390 2560,4363 2565,4356C2571,4350 2600,4316 2630,4280C2660,4244 2690,4210 2695,4203C2701,4197 2746,4143 2795,4085C2845,4026 2915,3943 2953,3900C3010,3833 3034,3790 3015,3790C3007,3790 2955,3815 2950,3821C2945,3828 2908,3849 2810,3903C2780,3920 2731,3948 2702,3967C2673,3985 2648,4000 2645,4000C2635,4000 2248,4226 2190,4267C2066,4353 2001,4437 1935,4597C1925,4620 1913,4637 1909,4634C1904,4631 1903,4635 1906,4643C1909,4651 1895,4684 1876,4718C1835,4786 1833,4795 1857,4786C1866,4782 1897,4772 1924,4764ZM4510,4786C4510,4783 4495,4755 4476,4723C4458,4691 4435,4643 4425,4615C4414,4588 4401,4556 4394,4545C4388,4534 4379,4514 4375,4501C4351,4421 4201,4282 4050,4199C3967,4154 3880,4093 3887,4086C3891,4082 3888,4082 3880,4085C3871,4088 3825,4066 3775,4036C3725,4006 3651,3962 3610,3938C3569,3915 3527,3891 3518,3885C3392,3809 3357,3791 3349,3796C3340,3801 3367,3846 3400,3881C3418,3899 3440,3927 3495,3995C3517,4023 3560,4075 3592,4112C3623,4148 3667,4204 3690,4235C3713,4267 3740,4300 3749,4309C3758,4318 3792,4359 3825,4400C3984,4599 4100,4686 4239,4711C4305,4723 4448,4766 4470,4780C4485,4790 4510,4793 4510,4786ZM2797,4728C2794,4720 2791,4723 2791,4734C2790,4745 2793,4751 2796,4747C2799,4744 2800,4735 2797,4728ZM2205,4720C2208,4714 2204,4713 2196,4716C2178,4723 2175,4730 2189,4730C2195,4730 2202,4726 2205,4720ZM5685,4640C5688,4635 5686,4630 5681,4630C5675,4630 5670,4635 5670,4640C5670,4646 5672,4650 5674,4650C5677,4650 5682,4646 5685,4640ZM773,4610C825,4591 876,4547 899,4504C908,4485 906,4481 887,4476C845,4465 729,4470 702,4484C664,4504 641,4531 634,4567C628,4596 630,4599 671,4613C695,4621 716,4629 717,4629C718,4630 743,4621 773,4610ZM5680,4615C5719,4595 5718,4570 5679,4525C5639,4480 5574,4459 5505,4471C5477,4475 5449,4479 5442,4479C5423,4480 5450,4527 5492,4566C5558,4629 5622,4645 5680,4615ZM5954,4614C5957,4606 5956,4602 5950,4605C5944,4608 5940,4615 5940,4621C5940,4635 5947,4632 5954,4614ZM1921,4563C1909,4543 1907,4549 1916,4575C1920,4584 1925,4589 1927,4586C1930,4584 1927,4573 1921,4563ZM5250,4550C5250,4545 5245,4540 5239,4540C5234,4540 5232,4545 5235,4550C5238,4556 5243,4560 5246,4560C5248,4560 5250,4556 5250,4550ZM2867,4528C2864,4520 2861,4523 2861,4534C2860,4545 2863,4551 2866,4547C2869,4544 2870,4535 2867,4528ZM3910,4526C3910,4523 3906,4518 3900,4515C3895,4512 3890,4514 3890,4519C3890,4525 3895,4530 3900,4530C3906,4530 3910,4528 3910,4526ZM3841,4447C3831,4438 3830,4439 3836,4453C3839,4463 3845,4468 3848,4465C3851,4462 3848,4454 3841,4447ZM2538,4415C2535,4412 2529,4417 2526,4427C2520,4441 2521,4442 2531,4433C2538,4426 2541,4418 2538,4415ZM4280,4330C4280,4325 4275,4320 4269,4320C4264,4320 4262,4325 4265,4330C4268,4336 4273,4340 4276,4340C4278,4340 4280,4336 4280,4330ZM5357,4287C5394,4274 5441,4253 5461,4239C5480,4226 5530,4193 5571,4166C5612,4139 5647,4115 5650,4113C5652,4111 5650,4103 5645,4095C5639,4088 5605,4037 5569,3983C5509,3894 5485,3867 5412,3808C5384,3785 5299,3746 5220,3720C5166,3702 5139,3699 5060,3702C4936,3708 4862,3733 4678,3833C4652,3847 4597,3866 4555,3876C4514,3886 4480,3896 4480,3899C4480,3902 4498,3913 4520,3923C4576,3949 4737,4111 4725,4129C4722,4135 4724,4148 4730,4157C4739,4173 4740,4172 4735,4153C4727,4123 4741,4124 4771,4156C4803,4191 4901,4257 4958,4283C5055,4326 5241,4328 5357,4287ZM1277,4299C1397,4283 1508,4221 1633,4100C1664,4069 1693,4046 1697,4049C1700,4052 1700,4050 1697,4043C1689,4029 1789,3935 1838,3912C1857,3903 1873,3891 1873,3885C1873,3880 1849,3872 1819,3868C1784,3863 1722,3839 1645,3801C1373,3666 1264,3652 1070,3728C957,3772 847,3860 806,3938C797,3955 770,3994 746,4024L702,4078L728,4102C831,4196 967,4273 1059,4290C1183,4312 1183,4312 1277,4299ZM2060,4253C2146,4225 2254,4169 2398,4081C2427,4063 2457,4051 2465,4054C2473,4057 2479,4054 2477,4047C2476,4041 2489,4029 2505,4020C2522,4011 2569,3984 2610,3960C2651,3935 2693,3912 2703,3908C2713,3904 2741,3887 2765,3870C2789,3854 2811,3840 2815,3840C2833,3840 2980,3746 2977,3736C2975,3730 2967,3726 2959,3727C2826,3745 2709,3763 2685,3770C2669,3775 2603,3786 2540,3795C2477,3804 2398,3817 2365,3825C2332,3833 2267,3844 2220,3850C2173,3856 2122,3865 2105,3870C2089,3875 2044,3888 2005,3899C1925,3921 1808,3983 1776,4019C1726,4076 1621,4179 1577,4214C1551,4235 1531,4255 1534,4257C1536,4259 1589,4263 1652,4266C1714,4268 1790,4274 1820,4279C1896,4291 1971,4283 2060,4253ZM4698,4273C4765,4270 4820,4263 4820,4259C4820,4254 4816,4250 4811,4250C4795,4250 4657,4119 4611,4061C4559,3996 4476,3947 4350,3909C4314,3898 4271,3885 4254,3879C4237,3874 4177,3863 4119,3855C4062,3846 3998,3835 3976,3829C3955,3823 3873,3808 3793,3795C3714,3781 3645,3768 3641,3765C3636,3763 3586,3753 3529,3745C3472,3736 3417,3727 3408,3724C3397,3721 3390,3724 3390,3732C3390,3740 3427,3768 3473,3795C3518,3822 3565,3850 3578,3857C3590,3865 3598,3876 3594,3882C3590,3888 3591,3890 3597,3887C3612,3878 3762,3964 3752,3976C3748,3981 3749,3982 3754,3978C3759,3974 3776,3978 3793,3986C3817,3999 3820,4004 3809,4012C3799,4018 3802,4019 3819,4015C3836,4010 3841,4011 3835,4020C3830,4029 3831,4031 3838,4026C3853,4017 3902,4049 3893,4063C3890,4069 3892,4070 3899,4066C3905,4062 3925,4067 3943,4078C3960,4089 4002,4112 4035,4130C4068,4148 4102,4168 4110,4175C4130,4192 4198,4226 4252,4246C4350,4282 4394,4290 4485,4285C4535,4282 4630,4277 4698,4273ZM5650,4280C5650,4275 5648,4270 5646,4270C5643,4270 5638,4275 5635,4280C5632,4286 5634,4290 5639,4290C5645,4290 5650,4286 5650,4280ZM3392,4238C3384,4230 3383,4234 3387,4251C3391,4264 3395,4269 3398,4261C3400,4254 3397,4243 3392,4238ZM2977,4228C2974,4221 2972,4226 2972,4240C2972,4254 2974,4259 2977,4253C2979,4246 2979,4234 2977,4228ZM6017,4109C6059,4083 6120,4004 6120,3976C6120,3964 6124,3949 6129,3942C6143,3920 6113,3794 6079,3730L6047,3670L6071,3618C6091,3574 6095,3548 6095,3470C6095,3385 6092,3370 6067,3325C6052,3297 6023,3257 6002,3237L5964,3200L5876,3216C5780,3234 5763,3248 5756,3311C5749,3370 5724,3446 5717,3430C5713,3422 5713,3425 5716,3437C5719,3449 5714,3473 5706,3489C5697,3506 5690,3523 5690,3528C5690,3533 5724,3540 5765,3542C5830,3546 5846,3551 5877,3577C5946,3633 5942,3701 5866,3756C5829,3782 5818,3785 5753,3784C5713,3783 5680,3787 5680,3792C5680,3797 5689,3818 5699,3839C5710,3859 5725,3912 5734,3956C5742,3999 5756,4051 5764,4071C5777,4103 5785,4109 5827,4118C5912,4135 5979,4132 6017,4109ZM493,4096C536,4088 573,4080 575,4078C577,4076 590,4023 605,3960C619,3897 638,3832 646,3816C654,3800 660,3785 660,3783C660,3782 639,3780 613,3780C522,3780 420,3711 420,3649C420,3615 468,3560 518,3538C553,3522 574,3519 616,3525C646,3528 670,3530 670,3528C670,3525 661,3505 650,3482C632,3445 618,3395 591,3267C580,3216 568,3207 483,3186L411,3169L374,3196C253,3289 218,3441 285,3588C315,3653 315,3662 291,3709C262,3763 250,3808 250,3858C250,3908 269,3980 282,3980C286,3980 290,3986 290,3993C291,3999 298,4014 308,4025C328,4048 402,4110 410,4110C413,4110 450,4103 493,4096ZM5694,4013C5687,3954 5651,3840 5622,3785C5613,3769 5606,3753 5607,3750C5608,3747 5586,3729 5559,3710C5533,3691 5508,3669 5505,3661C5498,3644 5518,3620 5539,3620C5586,3620 5669,3478 5696,3351C5713,3271 5713,3270 5699,3270C5686,3270 5660,3300 5618,3365C5572,3437 5543,3470 5535,3462C5530,3458 5530,3461 5534,3467C5547,3490 5392,3606 5317,3630C5295,3637 5268,3648 5255,3654C5233,3665 5236,3667 5294,3690C5349,3711 5400,3741 5485,3801C5518,3825 5564,3882 5624,3975C5662,4035 5689,4070 5697,4070C5700,4070 5698,4044 5694,4013ZM3327,4038C3324,4030 3321,4033 3321,4044C3320,4055 3323,4061 3326,4057C3329,4054 3330,4045 3327,4038ZM740,3944C781,3885 839,3816 869,3789C924,3740 1068,3660 1101,3660C1140,3660 1118,3634 1064,3617C951,3582 810,3465 758,3365C728,3308 658,3220 642,3220C632,3220 630,3226 635,3238C639,3247 646,3278 651,3305C663,3377 709,3498 742,3548C758,3571 789,3602 811,3617C832,3631 850,3646 850,3650C850,3655 831,3670 807,3685C727,3736 674,3844 645,4013C635,4076 660,4058 740,3944ZM2875,4040C2878,4035 2876,4030 2871,4030C2865,4030 2860,4035 2860,4040C2860,4046 2862,4050 2864,4050C2867,4050 2872,4046 2875,4040ZM3481,4003C3469,3983 3467,3989 3476,4015C3480,4024 3485,4029 3487,4026C3490,4024 3487,4013 3481,4003ZM3011,3873C3024,3857 3023,3856 3008,3869C2991,3882 2986,3890 2994,3890C2996,3890 3004,3882 3011,3873ZM5528,3870C5521,3860 5514,3853 5511,3855C5507,3859 5529,3890 5536,3890C5538,3890 5535,3881 5528,3870ZM4559,3824C4595,3815 4641,3797 4660,3783C4679,3770 4744,3739 4805,3714C4865,3688 4918,3665 4923,3661C4927,3657 4907,3648 4878,3641C4849,3633 4773,3601 4710,3569C4647,3537 4575,3506 4550,3501C4491,3487 4311,3487 4235,3500C4202,3506 4148,3515 4115,3520C4082,3526 4019,3537 3975,3545C3831,3572 3496,3629 3459,3633C3420,3638 3400,3646 3400,3659C3400,3667 3511,3692 3655,3715C3710,3724 3784,3738 3820,3746C3856,3754 3924,3767 3970,3775C4017,3783 4069,3792 4085,3796C4290,3842 4449,3851 4559,3824ZM2113,3816C2153,3808 2230,3794 2285,3785C2340,3776 2421,3762 2465,3753C2509,3745 2570,3734 2600,3730C2856,3691 2955,3669 2955,3650C2955,3641 2944,3634 2925,3632C2909,3631 2861,3623 2820,3615C2779,3608 2691,3592 2625,3580C2559,3568 2465,3550 2415,3540C2328,3522 2218,3503 2059,3479C1938,3461 1781,3481 1714,3522C1651,3561 1544,3609 1490,3623C1462,3630 1438,3640 1437,3644C1436,3649 1462,3662 1495,3674C1606,3716 1661,3744 1656,3756C1653,3765 1657,3767 1667,3763C1679,3758 1681,3760 1675,3770C1670,3778 1671,3781 1677,3777C1683,3773 1709,3779 1734,3791C1760,3802 1799,3815 1823,3819C1891,3833 2035,3831 2113,3816ZM3330,3820C3330,3815 3325,3810 3319,3810C3314,3810 3312,3815 3315,3820C3318,3826 3323,3830 3326,3830C3328,3830 3330,3826 3330,3820ZM3277,3794C3324,3759 3343,3724 3348,3666C3354,3595 3347,3572 3312,3532C3267,3481 3185,3462 3117,3486C3020,3520 2981,3643 3036,3737C3074,3802 3111,3822 3187,3818C3230,3815 3258,3808 3277,3794ZM4047,3814C4044,3811 4035,3810 4028,3813C4020,3816 4023,3819 4034,3819C4045,3820 4051,3817 4047,3814ZM4755,3770C4758,3765 4756,3760 4751,3760C4745,3760 4740,3765 4740,3770C4740,3776 4742,3780 4744,3780C4747,3780 4752,3776 4755,3770ZM3368,3715C3365,3712 3359,3717 3356,3727C3350,3741 3351,3742 3361,3733C3368,3726 3371,3718 3368,3715ZM5848,3705C5864,3692 5879,3683 5882,3686C5885,3688 5893,3682 5901,3673C5914,3656 5914,3656 5896,3670C5878,3684 5877,3683 5882,3657C5885,3642 5885,3632 5882,3634C5880,3637 5863,3629 5846,3617C5821,3599 5802,3595 5743,3596C5683,3596 5665,3600 5630,3624C5607,3639 5590,3656 5593,3663C5595,3669 5620,3687 5649,3702C5722,3740 5805,3741 5848,3705ZM5878,3705C5875,3702 5869,3707 5866,3717C5860,3731 5861,3732 5871,3723C5878,3716 5881,3708 5878,3705ZM685,3700C707,3690 734,3674 745,3665C765,3649 765,3649 740,3630C715,3611 608,3570 583,3570C556,3570 491,3605 480,3626C442,3696 585,3748 685,3700ZM5167,3644C5164,3641 5155,3640 5148,3643C5140,3646 5143,3649 5154,3649C5165,3650 5171,3647 5167,3644ZM5244,3600C5314,3575 5367,3550 5420,3515C5445,3499 5469,3487 5473,3488C5478,3489 5479,3486 5476,3481C5472,3476 5474,3468 5480,3465C5493,3457 5570,3353 5570,3344C5570,3340 5590,3313 5615,3284C5640,3256 5660,3230 5660,3227C5660,3224 5640,3210 5615,3195C5590,3181 5555,3156 5537,3141C5435,3051 5333,3018 5160,3017C5047,3016 5029,3019 4973,3042C4880,3081 4827,3122 4703,3247C4591,3361 4532,3410 4505,3410C4497,3410 4490,3416 4490,3424C4490,3432 4506,3439 4534,3442C4559,3445 4634,3475 4711,3512C4913,3611 4992,3632 5119,3623C5159,3620 5216,3610 5244,3600ZM1420,3591C1509,3566 1540,3553 1650,3496C1709,3465 1769,3443 1808,3436C1842,3430 1872,3421 1873,3416C1874,3411 1859,3398 1839,3388C1801,3368 1758,3330 1650,3216C1495,3052 1370,2990 1201,2990C1104,2990 990,3016 929,3052C854,3096 711,3195 710,3203C710,3208 725,3230 744,3253C762,3276 789,3316 804,3341C867,3451 1021,3563 1154,3595C1229,3614 1345,3612 1420,3591ZM6118,3585C6115,3582 6109,3587 6106,3597C6100,3611 6101,3612 6111,3603C6118,3596 6121,3588 6118,3585ZM2973,3577C2977,3566 2840,3473 2780,3447C2772,3443 2752,3431 2735,3420C2719,3409 2694,3395 2680,3388C2666,3381 2653,3373 2650,3370C2645,3364 2486,3270 2400,3222C2375,3208 2330,3181 2300,3162C2223,3113 2110,3063 2022,3039C1963,3022 1930,3019 1871,3024C1829,3027 1739,3032 1670,3036L1545,3042L1675,3172C1746,3244 1823,3315 1845,3330C1902,3369 2002,3407 2095,3426C2139,3434 2195,3446 2220,3451C2245,3457 2318,3470 2383,3480C2448,3491 2504,3502 2508,3504C2515,3508 2587,3521 2785,3555C2829,3563 2883,3573 2905,3578C2962,3592 2967,3592 2973,3577ZM3537,3571C3591,3560 3730,3535 3845,3515C3961,3495 4093,3472 4140,3464C4187,3455 4248,3444 4275,3440C4367,3424 4530,3359 4530,3339C4530,3334 4536,3330 4543,3330C4550,3330 4565,3320 4576,3308C4679,3197 4769,3109 4788,3098C4801,3091 4816,3078 4821,3068C4829,3053 4821,3051 4707,3051C4639,3050 4561,3046 4533,3041C4473,3029 4311,3051 4277,3075C4265,3083 4249,3090 4242,3090C4225,3090 4067,3169 4060,3180C4057,3185 4043,3194 4030,3199C4016,3205 3987,3221 3965,3235C3943,3249 3916,3264 3905,3269C3894,3274 3818,3318 3735,3367C3653,3416 3558,3471 3525,3489C3344,3590 3347,3608 3537,3571ZM1015,3570C1018,3565 1014,3560 1005,3560C996,3560 992,3565 995,3570C998,3576 1003,3580 1005,3580C1007,3580 1012,3576 1015,3570ZM4770,3570C4762,3565 4751,3560 4745,3560C4740,3560 4742,3565 4750,3570C4758,3575 4770,3580 4775,3580C4781,3580 4778,3575 4770,3570ZM3465,3462C3476,3455 3496,3445 3510,3439C3523,3434 3537,3426 3540,3422C3543,3418 3561,3407 3580,3396C3675,3346 3718,3322 3755,3299C3777,3285 3881,3225 3985,3165C4169,3060 4238,3011 4318,2930C4361,2886 4364,2880 4416,2755C4437,2706 4456,2663 4459,2660C4462,2657 4474,2638 4485,2617C4502,2582 4505,2580 4517,2596C4524,2606 4530,2609 4530,2604C4530,2598 4525,2589 4519,2583C4510,2574 4511,2565 4524,2545L4541,2520L4488,2541C4459,2553 4379,2577 4310,2595C4241,2613 4172,2633 4155,2640C4089,2665 3964,2773 3870,2887C3818,2950 3758,3020 3738,3041C3717,3062 3700,3085 3700,3091C3700,3097 3693,3099 3684,3096C3675,3093 3672,3094 3675,3100C3682,3112 3610,3197 3597,3192C3592,3191 3591,3194 3594,3199C3597,3203 3583,3227 3562,3251C3541,3275 3513,3308 3499,3324C3486,3340 3467,3362 3458,3372C3448,3382 3440,3392 3440,3395C3440,3398 3432,3408 3423,3418C3354,3490 3341,3509 3358,3512C3373,3516 3392,3507 3465,3462ZM3015,3500C3021,3491 2963,3408 2939,3390C2936,3387 2900,3345 2859,3295C2819,3246 2780,3199 2774,3192C2767,3185 2717,3124 2663,3057C2610,2990 2563,2933 2560,2930C2557,2927 2538,2904 2518,2879C2473,2823 2366,2719 2313,2680C2248,2632 2174,2600 2095,2585C2054,2577 2004,2564 1985,2556C1966,2548 1950,2543 1950,2546C1950,2548 1932,2541 1910,2530C1863,2506 1850,2505 1850,2525C1850,2533 1853,2540 1858,2540C1871,2540 1912,2628 1904,2641C1900,2648 1901,2651 1907,2647C1913,2643 1925,2660 1935,2683C1945,2706 1959,2739 1966,2757C1974,2774 1980,2794 1980,2802C1980,2809 1989,2826 2000,2840C2011,2854 2020,2869 2020,2873C2020,2877 2053,2913 2094,2953C2157,3014 2291,3105 2405,3166C2466,3198 2647,3306 2658,3317C2665,3324 2676,3330 2682,3330C2688,3330 2732,3354 2779,3383C2826,3412 2872,3439 2880,3443C2888,3447 2915,3463 2940,3479C2989,3511 3005,3515 3015,3500ZM4630,3490C4622,3485 4608,3481 4600,3481C4590,3481 4592,3484 4605,3490C4632,3502 4648,3502 4630,3490ZM3336,3438C3346,3425 3375,3390 3400,3360C3425,3330 3457,3292 3472,3275C3527,3212 3544,3192 3637,3078C3691,3012 3738,2963 3744,2967C3750,2970 3752,2970 3748,2965C3744,2961 3773,2919 3813,2871C3913,2752 3936,2719 3971,2649C4015,2561 4027,2510 4035,2383C4041,2268 4052,2188 4065,2158C4074,2136 4053,2134 4031,2155C3983,2198 3968,2211 3917,2249C3886,2271 3859,2290 3856,2290C3853,2290 3831,2304 3806,2321C3751,2358 3690,2433 3637,2531C3597,2603 3586,2630 3510,2840C3489,2898 3451,3001 3425,3070C3333,3317 3291,3443 3296,3451C3304,3465 3315,3462 3336,3438ZM3083,3434C3082,3429 3055,3353 3024,3265C2993,3177 2955,3067 2939,3020C2922,2973 2905,2926 2900,2915C2896,2904 2878,2855 2861,2805C2748,2470 2692,2382 2525,2269C2470,2232 2402,2181 2373,2156C2345,2131 2318,2110 2314,2110C2311,2110 2311,2125 2314,2143C2332,2229 2339,2288 2341,2382C2342,2468 2347,2494 2370,2549C2422,2671 2455,2727 2520,2805C2556,2848 2609,2913 2638,2949C2668,2985 2709,3035 2730,3060C2826,3174 2840,3193 2833,3202C2830,3208 2832,3210 2837,3207C2843,3203 2856,3210 2866,3222C2880,3237 2882,3244 2873,3247C2866,3250 2860,3256 2860,3262C2860,3269 2865,3268 2874,3261C2885,3252 2895,3258 2924,3292C2944,3315 2958,3340 2955,3348C2953,3355 2954,3358 2959,3355C2964,3352 2988,3372 3011,3400C3036,3430 3060,3449 3069,3447C3078,3445 3084,3440 3083,3434ZM3377,3444C3374,3441 3365,3440 3358,3443C3350,3446 3353,3449 3364,3449C3375,3450 3381,3447 3377,3444ZM3168,2910C3164,2455 3163,2421 3144,2355C3113,2252 3096,2216 3045,2150C3019,2116 3002,2085 3006,2078C3010,2072 3009,2070 3003,2073C2991,2081 2961,2040 2929,1973C2916,1944 2902,1921 2899,1920C2896,1920 2883,1962 2871,2013C2858,2063 2836,2141 2822,2185C2787,2293 2787,2395 2825,2540C2840,2598 2857,2654 2863,2665C2869,2676 2899,2759 2931,2850C3054,3205 3126,3406 3136,3422C3141,3429 3148,3426 3157,3414C3169,3398 3170,3313 3168,2910ZM3250,3415C3250,3407 3256,3386 3264,3368C3272,3350 3300,3277 3326,3205C3351,3134 3388,3032 3407,2980C3427,2928 3448,2867 3456,2845C3463,2823 3488,2756 3510,2695C3570,2534 3583,2478 3584,2360C3584,2271 3580,2244 3558,2178C3543,2136 3523,2061 3514,2011C3504,1958 3492,1919 3484,1916C3476,1913 3473,1916 3476,1925C3482,1939 3451,1999 3397,2078C3372,2116 3366,2119 3352,2108C3337,2096 3336,2097 3349,2113C3363,2131 3360,2139 3323,2178C3288,2215 3252,2312 3230,2430C3219,2486 3206,3381 3215,3410C3222,3433 3250,3437 3250,3415ZM1980,3416C1980,3414 1973,3409 1964,3406C1956,3403 1952,3404 1955,3410C1961,3420 1980,3424 1980,3416ZM2560,3286C2560,3283 2556,3278 2550,3275C2545,3272 2540,3274 2540,3279C2540,3285 2545,3290 2550,3290C2556,3290 2560,3288 2560,3286ZM1716,3242C1699,3226 1698,3226 1711,3247C1718,3259 1726,3267 1729,3264C1732,3262 1726,3252 1716,3242ZM3541,3243C3554,3227 3553,3226 3538,3239C3528,3246 3520,3254 3520,3256C3520,3264 3528,3259 3541,3243ZM5710,3171C5710,3165 5706,3159 5700,3155C5695,3152 5677,3124 5660,3092C5643,3061 5605,3008 5575,2976C5545,2943 5524,2912 5527,2907C5530,2901 5528,2900 5522,2904C5516,2908 5499,2903 5484,2894C5470,2884 5442,2874 5423,2871C5373,2863 5359,2837 5388,2810C5436,2765 5462,2673 5459,2556C5458,2512 5450,2459 5442,2438L5427,2400L5409,2439C5400,2461 5384,2511 5374,2552C5340,2692 5276,2803 5176,2898C5145,2927 5120,2952 5120,2954C5120,2956 5164,2960 5218,2963C5346,2971 5444,3006 5535,3076C5643,3159 5710,3195 5710,3171ZM5873,3165C5905,3157 5939,3150 5948,3150C5966,3150 6022,3075 6040,3027C6072,2940 6035,2835 5941,2739L5880,2678L5886,2624C5890,2594 5896,2570 5900,2570C5908,2570 5902,2544 5877,2455C5866,2418 5819,2362 5764,2319C5727,2290 5641,2266 5625,2280C5617,2286 5605,2288 5599,2284C5592,2280 5590,2281 5593,2287C5597,2293 5575,2310 5544,2326L5488,2355L5495,2420C5499,2456 5504,2525 5506,2574C5508,2623 5512,2665 5514,2668C5517,2670 5530,2666 5542,2658C5573,2638 5639,2627 5683,2635C5703,2639 5733,2656 5751,2672C5780,2700 5782,2706 5776,2749C5768,2810 5714,2864 5644,2880C5617,2887 5589,2894 5582,2896C5573,2899 5580,2911 5602,2932C5650,2979 5695,3043 5692,3059C5690,3066 5693,3069 5698,3066C5703,3063 5713,3074 5720,3091C5735,3126 5786,3180 5804,3180C5810,3180 5842,3173 5873,3165ZM2354,3156C2344,3148 2333,3144 2330,3146C2325,3152 2351,3170 2364,3170C2370,3170 2365,3164 2354,3156ZM772,3093C827,3055 895,3013 923,2997C981,2967 1095,2940 1185,2935C1218,2934 1246,2932 1247,2931C1249,2931 1229,2911 1204,2888C1145,2832 1072,2736 1049,2682C1039,2659 1017,2589 1001,2527C967,2397 954,2360 942,2360C932,2360 910,2517 910,2591C910,2669 933,2754 965,2795C995,2835 992,2860 959,2860C928,2860 860,2882 860,2892C860,2896 856,2900 850,2900C835,2900 733,3011 700,3064C684,3089 673,3110 677,3110C680,3110 676,3118 667,3128C652,3144 653,3160 667,3160C670,3160 717,3130 772,3093ZM3017,3138C3014,3130 3011,3133 3011,3144C3010,3155 3013,3161 3016,3157C3019,3154 3020,3145 3017,3138ZM596,3133C607,3123 624,3098 633,3078C643,3057 678,3007 710,2966C743,2925 766,2889 762,2887C758,2884 738,2877 717,2870C646,2847 580,2773 580,2715C580,2680 626,2635 675,2621C720,2609 775,2620 828,2652L860,2672L860,2593C860,2550 865,2481 871,2439C887,2335 881,2318 815,2281C785,2264 750,2250 736,2250C698,2250 607,2295 567,2333C530,2370 490,2438 490,2465C490,2474 486,2479 482,2476C478,2474 475,2518 476,2574L479,2677L434,2719C344,2806 325,2926 384,3040C422,3114 429,3120 497,3135C575,3152 574,3152 596,3133ZM3407,3078C3404,3070 3401,3073 3401,3084C3400,3095 3403,3101 3406,3097C3409,3094 3410,3085 3407,3078ZM2977,3038C2974,3031 2972,3036 2972,3050C2972,3064 2974,3069 2977,3063C2979,3056 2979,3044 2977,3038ZM4917,3014C4914,3011 4905,3010 4898,3013C4890,3016 4893,3019 4904,3019C4915,3020 4921,3017 4917,3014ZM4493,3003C4486,3001 4474,3001 4468,3003C4461,3006 4466,3008 4480,3008C4494,3008 4499,3006 4493,3003ZM4940,2982C5029,2950 5079,2920 5147,2857C5220,2788 5280,2693 5306,2605C5315,2572 5333,2511 5346,2470L5368,2395L5342,2389C5327,2385 5279,2372 5235,2360C5071,2314 4998,2312 4869,2349C4737,2387 4638,2463 4561,2583C4540,2614 4520,2637 4515,2633C4511,2628 4510,2630 4514,2637C4517,2643 4507,2677 4491,2712C4475,2747 4448,2807 4430,2846C4412,2885 4382,2934 4363,2954C4343,2974 4330,2994 4334,2997C4337,3000 4371,2997 4409,2990C4463,2980 4492,2980 4537,2988C4569,2995 4606,3002 4620,3004C4634,3007 4699,3007 4765,3005C4853,3003 4900,2997 4940,2982ZM5077,2994C5074,2991 5065,2990 5058,2993C5050,2996 5053,2999 5064,2999C5075,3000 5081,2997 5077,2994ZM5177,2994C5174,2991 5165,2990 5158,2993C5150,2996 5153,2999 5164,2999C5175,3000 5181,2997 5177,2994ZM1851,2974C1945,2969 1993,2971 2008,2979C2038,2995 2048,2974 2021,2949C1988,2918 1953,2857 1920,2775C1810,2497 1696,2379 1490,2324C1378,2295 1296,2295 1192,2325C1141,2339 1079,2353 1055,2357C1006,2363 1005,2365 1021,2407C1027,2422 1040,2475 1051,2523C1083,2669 1152,2780 1266,2870C1346,2934 1406,2961 1499,2974C1576,2985 1619,2985 1851,2974ZM5150,2900C5150,2895 5146,2890 5140,2890C5135,2890 5130,2895 5130,2900C5130,2906 5135,2910 5140,2910C5146,2910 5150,2906 5150,2900ZM3875,2852C3872,2849 3878,2837 3887,2826C3904,2806 3904,2806 3887,2819C3877,2827 3862,2847 3853,2864L3837,2895L3859,2876C3870,2865 3878,2855 3875,2852ZM2530,2847C2530,2845 2520,2835 2508,2824L2485,2805L2504,2828C2522,2849 2530,2855 2530,2847ZM5647,2829C5691,2813 5730,2770 5730,2738C5730,2702 5706,2690 5633,2690C5582,2690 5569,2695 5526,2726C5500,2746 5475,2770 5473,2781C5470,2791 5463,2800 5458,2800C5439,2800 5457,2825 5481,2831C5519,2842 5616,2841 5647,2829ZM885,2816C903,2803 903,2802 880,2771C824,2692 724,2652 661,2684C644,2693 630,2706 630,2714C630,2738 675,2793 710,2811C752,2834 857,2837 885,2816ZM3960,2750C3960,2745 3958,2740 3956,2740C3953,2740 3948,2745 3945,2750C3942,2756 3944,2760 3949,2760C3955,2760 3960,2756 3960,2750ZM4025,2702C4022,2699 4014,2702 4007,2709C3998,2719 3999,2720 4013,2714C4023,2711 4028,2705 4025,2702ZM4125,2598C4153,2584 4204,2567 4240,2561C4392,2532 4561,2461 4631,2397C4710,2326 4751,2260 4800,2125C4818,2075 4821,2047 4819,1955C4818,1895 4817,1818 4816,1785C4815,1752 4811,1722 4807,1719C4802,1716 4780,1717 4757,1721C4734,1725 4690,1729 4659,1730C4591,1730 4459,1763 4412,1791C4384,1807 4375,1809 4368,1798C4361,1788 4360,1789 4362,1802C4364,1812 4351,1830 4330,1845C4261,1896 4192,1971 4162,2027C4119,2109 4101,2190 4090,2348C4085,2429 4073,2511 4062,2550C4031,2651 4031,2661 4058,2638C4067,2629 4098,2611 4125,2598ZM2324,2578C2312,2555 2304,2503 2298,2405C2278,2081 2211,1930 2035,1810C1943,1747 1858,1719 1730,1710C1667,1705 1608,1698 1599,1695C1580,1688 1573,1729 1564,1905C1559,1991 1561,2029 1575,2080C1602,2182 1656,2277 1729,2350C1824,2445 1919,2488 2175,2552C2235,2567 2320,2612 2320,2630C2321,2642 2322,2642 2331,2628C2338,2615 2336,2601 2324,2578ZM4185,2602C4182,2599 4174,2602 4167,2609C4158,2619 4159,2620 4173,2614C4183,2611 4188,2605 4185,2602ZM4040,2590C4040,2585 4038,2580 4036,2580C4033,2580 4028,2585 4025,2590C4022,2596 4024,2600 4029,2600C4035,2600 4040,2596 4040,2590ZM4645,2450C4655,2439 4661,2430 4658,2430C4655,2430 4645,2439 4635,2450C4625,2461 4619,2470 4622,2470C4625,2470 4635,2461 4645,2450ZM4620,2440C4620,2435 4618,2430 4616,2430C4613,2430 4608,2435 4605,2440C4602,2446 4604,2450 4609,2450C4615,2450 4620,2446 4620,2440ZM4067,2418C4064,2410 4061,2413 4061,2424C4060,2435 4063,2441 4066,2437C4069,2434 4070,2425 4067,2418ZM3716,2333C3735,2310 3763,2285 3778,2277C3814,2259 3854,2236 3860,2230C3863,2227 3890,2206 3920,2183C4072,2068 4135,1981 4169,1838C4206,1687 4195,1583 4128,1441C4107,1395 4091,1351 4094,1343C4097,1335 4095,1332 4090,1335C4084,1338 4080,1333 4080,1323C4080,1312 4074,1295 4066,1285C4053,1267 4052,1267 4024,1286C4008,1297 3984,1311 3970,1317C3818,1386 3782,1408 3726,1464C3661,1529 3598,1629 3568,1713C3531,1821 3547,1984 3616,2203C3632,2254 3640,2306 3640,2353L3641,2425L3661,2400C3672,2386 3697,2356 3716,2333ZM2750,2325C2750,2263 2769,2170 2789,2133C2807,2099 2840,1900 2840,1827C2840,1713 2808,1630 2722,1512C2653,1420 2615,1388 2510,1339C2463,1317 2404,1288 2378,1275L2331,1250L2319,1293C2312,1316 2301,1342 2295,1350C2270,1383 2219,1510 2209,1566C2185,1695 2219,1890 2283,1985C2329,2053 2501,2204 2579,2245C2621,2266 2699,2339 2716,2373C2738,2414 2750,2397 2750,2325ZM2327,2338C2324,2330 2321,2333 2321,2344C2320,2355 2323,2361 2326,2357C2329,2354 2330,2345 2327,2338ZM5400,2331C5399,2328 5376,2307 5349,2285C5321,2263 5293,2240 5287,2234C5225,2178 5089,2125 5024,2133C4970,2139 4963,2129 4985,2077C5016,2003 4994,1880 4924,1733C4870,1619 4855,1659 4865,1883C4872,2051 4865,2109 4825,2195C4811,2226 4800,2253 4800,2256C4800,2259 4791,2275 4779,2292C4767,2308 4760,2323 4762,2326C4765,2328 4800,2319 4841,2305C4882,2291 4925,2282 4937,2285C4949,2288 4962,2285 4966,2279C4977,2261 5158,2276 5211,2299C5235,2310 5279,2322 5307,2326C5336,2329 5358,2336 5355,2340C5353,2344 5362,2345 5375,2342C5389,2340 5400,2335 5400,2331ZM3794,2305C3813,2287 3816,2280 3806,2280C3797,2280 3790,2285 3790,2290C3790,2296 3783,2300 3774,2300C3766,2300 3761,2304 3764,2309C3768,2314 3764,2321 3758,2323C3750,2326 3750,2329 3756,2329C3762,2330 3779,2319 3794,2305ZM1080,2299C1201,2264 1273,2250 1332,2250C1408,2250 1526,2272 1571,2296C1588,2304 1604,2309 1608,2306C1611,2302 1598,2267 1578,2227C1559,2188 1532,2113 1519,2061C1496,1967 1496,1967 1513,1851C1522,1787 1530,1727 1530,1718C1530,1686 1505,1699 1480,1745C1466,1770 1453,1790 1450,1790C1447,1790 1444,1800 1443,1811C1442,1823 1434,1840 1426,1849C1403,1875 1377,2006 1384,2059C1398,2156 1403,2151 1318,2135C1272,2126 1166,2158 1095,2203C1027,2245 970,2293 970,2306C970,2319 1021,2315 1080,2299ZM3223,2264C3239,2213 3265,2167 3299,2131C3345,2082 3460,1881 3460,1850C3460,1844 3464,1842 3470,1845C3476,1848 3477,1844 3474,1835C3470,1827 3474,1812 3481,1803C3491,1792 3495,1755 3495,1676C3494,1582 3490,1553 3468,1487C3453,1445 3429,1390 3415,1366C3392,1327 3218,1129 3201,1122C3197,1121 3168,1147 3136,1180C3104,1213 3073,1237 3067,1233C3062,1230 3060,1232 3063,1237C3067,1243 3060,1256 3049,1266C3027,1286 2978,1355 2956,1398C2904,1500 2876,1683 2899,1777C2911,1826 2990,1997 3015,2028C3107,2142 3142,2200 3181,2298C3194,2332 3203,2325 3223,2264ZM5540,2268C5642,2213 5650,2199 5650,2072C5650,2019 5645,1989 5630,1961C5602,1906 5534,1844 5474,1820C5425,1800 5422,1797 5407,1741C5365,1591 5239,1502 5064,1500C5027,1500 5019,1505 4982,1549C4930,1611 4929,1637 4975,1728C4994,1766 5017,1822 5027,1854C5036,1885 5047,1910 5051,1910C5055,1910 5074,1897 5092,1880C5137,1838 5222,1814 5264,1831C5281,1839 5303,1853 5312,1865C5331,1887 5335,1945 5320,1984C5308,2017 5252,2073 5218,2088C5202,2094 5190,2103 5190,2107C5190,2112 5210,2125 5234,2138C5257,2151 5310,2188 5350,2221C5390,2253 5427,2280 5432,2280C5438,2280 5440,2286 5437,2294C5429,2313 5481,2300 5540,2268ZM2590,2275C2590,2273 2580,2265 2568,2259C2547,2248 2546,2248 2559,2263C2572,2279 2590,2286 2590,2275ZM976,2225C997,2205 1049,2171 1090,2148C1131,2125 1166,2106 1168,2104C1170,2103 1149,2080 1122,2053C1039,1970 1029,1868 1099,1827C1115,1818 1143,1810 1162,1810C1201,1810 1275,1853 1307,1894C1336,1930 1346,1927 1359,1878C1369,1835 1443,1701 1461,1689C1467,1686 1470,1679 1469,1674C1467,1669 1470,1655 1474,1642C1482,1617 1467,1587 1418,1535C1403,1519 1390,1502 1390,1498C1390,1483 1313,1468 1259,1473C1138,1484 1037,1585 1006,1727C1001,1749 990,1760 962,1770C904,1791 807,1894 782,1963C748,2054 755,2209 794,2211C800,2211 821,2222 840,2235C891,2270 929,2267 976,2225ZM5641,2233C5654,2217 5653,2216 5638,2229C5628,2236 5620,2244 5620,2246C5620,2254 5628,2249 5641,2233ZM5680,2246C5680,2243 5676,2238 5670,2235C5665,2232 5660,2234 5660,2239C5660,2245 5665,2250 5670,2250C5676,2250 5680,2248 5680,2246ZM3280,2220C3280,2215 3278,2210 3276,2210C3273,2210 3268,2215 3265,2220C3262,2226 3264,2230 3269,2230C3275,2230 3280,2226 3280,2220ZM5010,2116C5010,2113 5006,2108 5000,2105C4995,2102 4990,2104 4990,2109C4990,2115 4995,2120 5000,2120C5006,2120 5010,2118 5010,2116ZM1307,2104C1304,2101 1295,2100 1288,2103C1280,2106 1283,2109 1294,2109C1305,2110 1311,2107 1307,2104ZM1323,2048C1314,1995 1266,1917 1230,1892C1205,1875 1184,1870 1155,1872L1115,1875L1115,1928C1116,1975 1120,1985 1151,2016C1189,2054 1246,2079 1297,2080C1328,2080 1329,2079 1323,2048ZM4837,2058C4834,2050 4831,2053 4831,2064C4830,2075 4833,2081 4836,2077C4839,2074 4840,2065 4837,2058ZM5122,2069C5151,2063 5182,2052 5190,2045C5198,2038 5214,2030 5225,2026C5265,2014 5294,1928 5271,1891C5258,1871 5166,1882 5132,1907C5069,1953 5017,2080 5060,2080C5065,2080 5093,2075 5122,2069ZM5290,2000C5290,1995 5288,1990 5286,1990C5283,1990 5278,1995 5275,2000C5272,2006 5274,2010 5279,2010C5285,2010 5290,2006 5290,2000ZM2947,1948C2944,1940 2941,1943 2941,1954C2940,1965 2943,1971 2946,1967C2949,1964 2950,1955 2947,1948ZM3457,1918C3454,1910 3451,1913 3451,1924C3450,1935 3453,1941 3456,1937C3459,1934 3460,1925 3457,1918ZM777,1908C774,1900 771,1903 771,1914C770,1925 773,1931 776,1927C779,1924 780,1915 777,1908ZM4837,1898C4834,1890 4831,1893 4831,1904C4830,1915 4833,1921 4836,1917C4839,1914 4840,1905 4837,1898ZM3487,1868C3484,1860 3481,1863 3481,1874C3480,1885 3483,1891 3486,1887C3489,1884 3490,1875 3487,1868ZM4260,1880C4260,1875 4256,1870 4250,1870C4245,1870 4240,1875 4240,1880C4240,1886 4245,1890 4250,1890C4256,1890 4260,1886 4260,1880ZM2906,1843C2896,1833 2887,1848 2896,1861C2902,1872 2904,1872 2908,1861C2910,1854 2909,1846 2906,1843ZM4406,1741C4487,1701 4574,1681 4671,1679C4738,1678 4832,1658 4837,1645C4840,1634 4817,1625 4685,1585C4584,1554 4474,1552 4414,1579C4391,1589 4368,1595 4363,1591C4357,1588 4353,1565 4353,1540C4353,1483 4320,1411 4261,1340C4236,1310 4216,1282 4218,1278C4219,1274 4216,1271 4212,1272C4207,1274 4186,1258 4166,1238C4125,1197 4112,1192 4104,1215C4097,1233 4134,1347 4166,1404C4225,1510 4248,1662 4226,1814L4218,1873L4272,1827C4302,1801 4362,1763 4406,1741ZM5590,1860C5590,1855 5585,1850 5579,1850C5574,1850 5572,1855 5575,1860C5578,1866 5583,1870 5586,1870C5588,1870 5590,1866 5590,1860ZM4305,1840C4308,1835 4306,1830 4301,1830C4295,1830 4290,1835 4290,1840C4290,1846 4292,1850 4294,1850C4297,1850 4302,1846 4305,1840ZM2165,1818C2161,1805 2156,1750 2153,1695C2149,1610 2151,1583 2170,1520C2182,1479 2203,1424 2216,1399C2229,1373 2248,1330 2258,1304C2269,1277 2281,1247 2285,1238C2295,1213 2278,1216 2248,1243C2234,1255 2212,1274 2199,1285C2117,1352 2030,1495 2030,1563C2030,1615 2014,1623 1967,1592C1931,1568 1918,1565 1841,1566C1756,1566 1624,1597 1591,1623C1573,1639 1613,1648 1750,1660C1808,1665 1880,1677 1910,1688C1975,1711 2071,1767 2119,1810C2159,1846 2175,1848 2165,1818ZM5560,1836C5560,1833 5556,1828 5550,1825C5545,1822 5540,1824 5540,1829C5540,1835 5545,1840 5550,1840C5556,1840 5560,1838 5560,1836ZM4427,1764C4424,1761 4415,1760 4408,1763C4400,1766 4403,1769 4414,1769C4425,1770 4431,1767 4427,1764ZM4490,1730C4498,1725 4501,1720 4495,1720C4490,1720 4478,1725 4470,1730C4462,1735 4460,1740 4465,1740C4471,1740 4482,1735 4490,1730ZM5437,1718C5434,1710 5431,1713 5431,1724C5430,1735 5433,1741 5436,1737C5439,1734 5440,1725 5437,1718ZM5377,1608C5374,1600 5371,1603 5371,1614C5370,1625 5373,1631 5376,1627C5379,1624 5380,1615 5377,1608ZM3584,1566C3627,1492 3686,1424 3749,1376C3782,1351 3811,1330 3815,1330C3818,1330 3872,1305 3936,1275C4034,1228 4075,1198 4059,1186C4057,1185 4001,1187 3934,1191C3852,1196 3802,1203 3780,1215C3762,1224 3739,1230 3729,1227C3718,1224 3712,1226 3716,1231C3719,1236 3714,1240 3705,1240C3697,1240 3687,1233 3684,1225C3680,1217 3674,1210 3669,1210C3664,1210 3667,1221 3676,1235C3686,1251 3688,1260 3681,1260C3675,1260 3656,1276 3639,1294C3604,1335 3584,1332 3575,1284C3565,1230 3479,1151 3379,1103C3288,1059 3230,1042 3230,1059C3230,1071 3268,1117 3363,1218C3444,1305 3512,1436 3532,1543C3539,1580 3548,1610 3551,1610C3555,1610 3570,1590 3584,1566ZM2855,1548C2866,1482 2909,1370 2943,1320C2960,1295 3017,1231 3072,1177C3217,1033 3204,1018 3015,1110C2906,1162 2853,1208 2817,1280C2794,1327 2765,1340 2765,1303C2765,1292 2761,1278 2757,1274C2753,1269 2752,1274 2756,1285C2762,1301 2756,1299 2732,1276C2708,1254 2703,1244 2712,1237C2720,1232 2717,1231 2703,1235C2689,1239 2661,1233 2633,1220C2596,1203 2557,1197 2465,1193C2354,1187 2346,1188 2359,1203C2366,1213 2377,1220 2382,1220C2400,1220 2441,1253 2431,1260C2425,1263 2435,1266 2453,1266C2545,1267 2729,1409 2799,1533C2817,1564 2835,1590 2840,1590C2844,1590 2851,1571 2855,1548ZM4928,1536C4985,1475 4993,1456 4984,1407C4980,1384 4976,1362 4976,1358C4975,1355 4972,1348 4968,1344C4963,1340 4960,1329 4960,1320C4960,1303 4904,1220 4883,1207C4877,1203 4865,1194 4858,1187C4834,1165 4767,1139 4718,1133C4678,1128 4665,1121 4647,1096C4613,1047 4570,1012 4510,982C4463,959 4443,955 4375,956C4327,957 4273,965 4240,976L4185,995L4162,1068C4141,1132 4140,1142 4153,1155C4162,1163 4170,1173 4172,1177C4173,1182 4195,1201 4220,1221C4245,1241 4283,1282 4305,1313C4349,1375 4365,1382 4374,1345C4384,1305 4447,1243 4496,1224C4550,1203 4580,1213 4610,1262C4636,1305 4635,1360 4609,1413C4577,1477 4570,1483 4551,1468C4537,1456 4537,1457 4548,1472C4556,1481 4559,1493 4556,1498C4553,1503 4578,1510 4611,1514C4644,1517 4686,1526 4703,1534C4754,1556 4833,1579 4861,1579C4880,1580 4899,1567 4928,1536ZM1644,1546C1683,1533 1741,1518 1773,1515C1828,1508 1842,1499 1819,1484C1798,1472 1770,1388 1770,1340C1770,1280 1785,1246 1817,1231C1898,1194 1989,1256 2024,1373C2029,1387 2052,1368 2140,1278C2201,1217 2253,1156 2256,1143C2266,1105 2229,1001 2198,979C2162,953 2066,935 2009,944C1942,954 1851,1009 1805,1068C1769,1113 1761,1119 1724,1119C1627,1121 1522,1175 1477,1247C1455,1282 1410,1408 1410,1434C1410,1440 1430,1470 1455,1500C1480,1530 1500,1558 1500,1562C1500,1578 1576,1569 1644,1546ZM5325,1550C5322,1545 5314,1540 5309,1540C5303,1540 5302,1545 5305,1550C5308,1556 5316,1560 5321,1560C5327,1560 5328,1556 5325,1550ZM5295,1522C5292,1519 5284,1522 5277,1529C5268,1539 5269,1540 5283,1534C5293,1531 5298,1525 5295,1522ZM1990,1488C1990,1427 1965,1341 1939,1314C1927,1301 1902,1285 1883,1279C1838,1264 1821,1280 1818,1337C1815,1425 1894,1519 1983,1529C1987,1530 1990,1511 1990,1488ZM4534,1438C4577,1388 4591,1342 4575,1303C4568,1286 4557,1269 4551,1265C4532,1254 4457,1297 4433,1333C4406,1372 4390,1450 4397,1497L4403,1530L4452,1503C4480,1488 4517,1459 4534,1438ZM5097,1474C5094,1471 5085,1470 5078,1473C5070,1476 5073,1479 5084,1479C5095,1480 5101,1477 5097,1474ZM3705,1441C3699,1436 3680,1451 3680,1461C3680,1466 3686,1465 3694,1458C3702,1451 3706,1443 3705,1441ZM2715,1450C2718,1445 2716,1440 2711,1440C2705,1440 2700,1445 2700,1450C2700,1456 2702,1460 2704,1460C2707,1460 2712,1456 2715,1450ZM4153,1435C4150,1426 4145,1421 4143,1424C4140,1427 4141,1433 4145,1439C4154,1455 4160,1452 4153,1435ZM2620,1360C2620,1355 2616,1350 2610,1350C2605,1350 2600,1355 2600,1360C2600,1366 2605,1370 2610,1370C2616,1370 2620,1366 2620,1360ZM3900,1320C3900,1315 3898,1310 3896,1310C3893,1310 3888,1315 3885,1320C3882,1326 3884,1330 3889,1330C3895,1330 3900,1326 3900,1320ZM4431,1303C4444,1287 4443,1286 4428,1299C4411,1312 4406,1320 4414,1320C4416,1320 4424,1312 4431,1303ZM4601,1293C4589,1273 4587,1279 4596,1305C4600,1314 4605,1319 4607,1316C4610,1314 4607,1303 4601,1293ZM3045,1238C3051,1233 3051,1230 3044,1230C3033,1230 2980,1292 2980,1305C2980,1309 2992,1297 3007,1278C3022,1260 3039,1242 3045,1238ZM2220,1240C2220,1235 2218,1230 2216,1230C2213,1230 2208,1235 2205,1240C2202,1246 2204,1250 2209,1250C2215,1250 2220,1246 2220,1240ZM3650,1235C3639,1222 3641,1216 3657,1197C3718,1131 3738,1026 3699,976C3666,934 3635,942 3597,1000C3558,1061 3571,1204 3618,1225C3630,1230 3640,1238 3640,1242C3640,1247 3645,1250 3651,1250C3659,1250 3658,1245 3650,1235ZM2787,1228C2823,1182 2827,1025 2793,988C2764,956 2724,938 2712,953C2649,1032 2659,1119 2744,1218C2766,1243 2774,1245 2787,1228ZM3700,1185C3707,1176 3708,1170 3702,1170C3697,1170 3690,1177 3686,1185C3683,1193 3682,1200 3684,1200C3686,1200 3693,1193 3700,1185ZM3537,1148C3534,1140 3531,1143 3531,1154C3530,1165 3533,1171 3536,1167C3539,1164 3540,1155 3537,1148ZM4007,1164C4004,1161 3995,1160 3988,1163C3980,1166 3983,1169 3994,1169C4005,1170 4011,1167 4007,1164ZM2635,1141C2632,1131 2629,1096 2629,1063C2627,928 2710,860 2797,926C2846,963 2868,1011 2869,1088C2870,1105 2875,1120 2881,1120C2887,1120 2917,1105 2948,1087C2979,1069 3038,1042 3077,1026C3177,986 3182,979 3178,884L3175,805L3116,765L3058,725L2951,725C2848,726 2843,727 2775,763L2705,800L2635,784C2510,756 2413,786 2325,882C2260,951 2257,973 2296,1060C2327,1129 2346,1140 2438,1141C2475,1141 2525,1145 2550,1149C2629,1164 2642,1162 2635,1141ZM3920,1144C3967,1141 4024,1134 4046,1127C4086,1117 4089,1113 4115,1046L4143,975L4114,921C4080,856 4015,805 3947,790C3887,777 3798,777 3743,790C3699,800 3644,788 3655,771C3658,766 3655,758 3649,754C3641,750 3640,751 3644,758C3654,775 3648,773 3591,744C3549,722 3527,717 3460,717C3393,717 3372,722 3325,745C3295,761 3270,777 3270,781C3270,785 3261,792 3250,795C3232,801 3230,810 3230,884C3230,957 3233,969 3253,988C3265,999 3289,1012 3305,1016C3322,1020 3373,1043 3419,1067C3465,1090 3507,1110 3512,1110C3516,1110 3520,1099 3520,1085C3520,1011 3589,910 3651,895C3683,887 3736,928 3756,977C3774,1020 3774,1088 3755,1124C3747,1139 3740,1155 3740,1157C3740,1160 3761,1160 3788,1156C3814,1153 3873,1148 3920,1144ZM3185,1110C3188,1104 3184,1103 3176,1106C3158,1113 3155,1120 3169,1120C3175,1120 3182,1116 3185,1110ZM3337,1044C3334,1041 3325,1040 3318,1043C3310,1046 3313,1049 3324,1049C3335,1050 3341,1047 3337,1044ZM4185,970C4188,965 4186,960 4181,960C4175,960 4170,965 4170,970C4170,976 4172,980 4174,980C4177,980 4182,976 4185,970ZM4530,960C4530,955 4526,950 4520,950C4515,950 4510,955 4510,960C4510,966 4515,970 4520,970C4526,970 4530,966 4530,960ZM3720,950C3720,945 3715,940 3709,940C3704,940 3702,945 3705,950C3708,956 3713,960 3716,960C3718,960 3720,956 3720,950ZM4260,956C4260,953 4256,948 4250,945C4245,942 4240,944 4240,949C4240,955 4245,960 4250,960C4256,960 4260,958 4260,956ZM4457,934C4454,931 4445,930 4438,933C4430,936 4433,939 4444,939C4455,940 4461,937 4457,934ZM4060,805C4046,797 4031,791 4025,791C4020,791 4026,797 4040,805C4054,813 4070,819 4075,819C4081,819 4074,813 4060,805ZM2706,768C2697,763 2683,763 2674,768C2662,774 2667,777 2690,777C2713,777 2718,774 2706,768ZM3733,773C3726,771 3714,771 3708,773C3701,776 3706,778 3720,778C3734,778 3739,776 3733,773ZM2476,760C2491,754 2501,747 2498,745C2495,742 2478,746 2459,754C2421,771 2434,775 2476,760ZM3165,760C3162,755 3154,750 3149,750C3143,750 3142,755 3145,760C3148,766 3156,770 3161,770C3167,770 3168,766 3165,760ZM3925,760C3928,754 3924,753 3916,756C3898,763 3895,770 3909,770C3915,770 3922,766 3925,760ZM2753,753C2746,751 2734,751 2728,753C2721,756 2726,758 2740,758C2754,758 2759,756 2753,753ZM2810,726C2810,724 2801,724 2790,727C2779,730 2770,736 2770,742C2770,747 2779,746 2790,740C2801,734 2810,728 2810,726ZM3897,744C3894,741 3885,740 3878,743C3870,746 3873,749 3884,749C3895,750 3901,747 3897,744ZM3413,693C3406,691 3394,691 3388,693C3381,696 3386,698 3400,698C3414,698 3419,696 3413,693ZM3525,690C3522,685 3509,680 3497,681C3477,682 3477,683 3500,690C3514,694 3526,698 3528,699C3530,700 3528,696 3525,690Z" style="fill:rgb(235,235,235);fill-rule:nonzero;"/>
                </g>
            </g>
        </g>
    </g>
</svg>
